<?xml version="1.0" encoding="utf-8"?>
<!-- Generator: Adobe Illustrator 26.3.1, SVG Export Plug-In . SVG Version: 6.00 Build 0)  -->
<svg version="1.1" id="Capa_1" xmlns="http://www.w3.org/2000/svg" xmlns:xlink="http://www.w3.org/1999/xlink" x="0px" y="0px"
	 viewBox="0 0 330 105" style="enable-background:new 0 0 330 105;" xml:space="preserve">
<style type="text/css">
	.st0{fill:#FFFFFF;}
</style>
<g>
	<g>
		<g>
			<path class="st0" d="M79.72,66.07c-0.81,0.38-1.5,0.9-2.08,1.57c-0.57,0.67-1.01,1.46-1.3,2.37c-0.29,0.91-0.44,1.9-0.44,2.96
				c0,1.2,0.19,2.32,0.57,3.34c0.38,1.02,0.94,1.9,1.68,2.62c0.74,0.73,1.66,1.3,2.75,1.72c1.09,0.42,2.34,0.63,3.73,0.63
				c1.43,0,2.73-0.22,3.9-0.65c1.18-0.43,2.13-0.86,2.85-1.28l3.02,6.46c-1.34,0.87-2.88,1.57-4.62,2.1
				c-1.73,0.53-3.68,0.8-5.83,0.8c-2.43,0-4.66-0.35-6.67-1.05c-2.01-0.7-3.74-1.71-5.18-3.04c-1.44-1.33-2.56-2.97-3.36-4.93
				c-0.8-1.96-1.2-4.2-1.2-6.71c0-2.41,0.39-4.54,1.17-6.4c0.78-1.86,1.85-3.42,3.19-4.68c1.34-1.26,2.92-2.21,4.74-2.85
				c1.82-0.64,3.76-0.96,5.83-0.96c1.51,0,2.87,0.15,4.09,0.46c1.22,0.31,2.3,0.72,3.25,1.24c0.95,0.52,1.78,1.12,2.48,1.8
				c0.7,0.69,1.3,1.41,1.8,2.16l-5.87,4.62c-0.62-0.84-1.37-1.52-2.27-2.06s-2.06-0.8-3.48-0.8C81.45,65.5,80.53,65.69,79.72,66.07z
				"/>
			<path class="st0" d="M105.94,58.5v22.7h10.87v7.09H97.97V58.5H105.94z"/>
			<path class="st0" d="M125.67,88.29h-8.01l10.7-29.79h8.77l10.7,29.79h-8.43l-1.8-5.54h-10.11L125.67,88.29z M129.44,76.54h6.13
				l-3.06-9.44L129.44,76.54z"/>
			<path class="st0" d="M158.02,65.42c-0.5,0.28-0.76,0.7-0.76,1.26c0,0.73,0.48,1.31,1.43,1.76c0.95,0.45,2.27,0.97,3.94,1.55
				c1.23,0.45,2.33,0.93,3.29,1.45c0.96,0.52,1.78,1.13,2.45,1.85c0.67,0.71,1.18,1.53,1.53,2.45c0.35,0.92,0.52,2.01,0.52,3.27
				c0,1.51-0.27,2.86-0.8,4.05c-0.53,1.19-1.29,2.2-2.29,3.04c-0.99,0.84-2.2,1.48-3.61,1.93c-1.41,0.45-3.01,0.67-4.81,0.67
				c-2.1,0-4.05-0.29-5.85-0.86c-1.8-0.57-3.42-1.31-4.85-2.2l3.27-6.5c1.26,0.87,2.55,1.52,3.88,1.95
				c1.33,0.43,2.62,0.65,3.88,0.65c1.06,0,1.83-0.17,2.31-0.5c0.48-0.34,0.71-0.81,0.71-1.43c0-0.34-0.08-0.63-0.23-0.88
				c-0.15-0.25-0.42-0.49-0.8-0.71c-0.38-0.22-0.89-0.47-1.53-0.73c-0.64-0.27-1.45-0.58-2.43-0.94c-1.26-0.48-2.39-0.99-3.4-1.53
				c-1.01-0.55-1.86-1.18-2.56-1.89c-0.7-0.71-1.24-1.53-1.62-2.45c-0.38-0.92-0.57-1.99-0.57-3.19c0-1.48,0.27-2.8,0.8-3.97
				c0.53-1.16,1.27-2.15,2.2-2.96c0.94-0.81,2.06-1.43,3.36-1.85c1.3-0.42,2.71-0.63,4.22-0.63c1.31,0,2.52,0.14,3.63,0.42
				c1.1,0.28,2.09,0.66,2.96,1.15c0.87,0.49,1.59,1.05,2.18,1.68c0.59,0.63,1.04,1.29,1.34,1.99l-6.25,3.73
				c-0.34-0.56-0.82-1.04-1.45-1.45c-0.63-0.41-1.41-0.61-2.33-0.61C159.13,65,158.52,65.14,158.02,65.42z"/>
			<path class="st0" d="M182.11,65.42c-0.5,0.28-0.76,0.7-0.76,1.26c0,0.73,0.48,1.31,1.43,1.76c0.95,0.45,2.27,0.97,3.94,1.55
				c1.23,0.45,2.33,0.93,3.29,1.45c0.96,0.52,1.78,1.13,2.45,1.85c0.67,0.71,1.18,1.53,1.53,2.45c0.35,0.92,0.52,2.01,0.52,3.27
				c0,1.51-0.27,2.86-0.8,4.05c-0.53,1.19-1.29,2.2-2.29,3.04c-0.99,0.84-2.2,1.48-3.61,1.93c-1.41,0.45-3.01,0.67-4.81,0.67
				c-2.1,0-4.05-0.29-5.85-0.86c-1.8-0.57-3.42-1.31-4.85-2.2l3.27-6.5c1.26,0.87,2.55,1.52,3.88,1.95
				c1.33,0.43,2.62,0.65,3.88,0.65c1.06,0,1.83-0.17,2.31-0.5c0.48-0.34,0.71-0.81,0.71-1.43c0-0.34-0.08-0.63-0.23-0.88
				c-0.15-0.25-0.42-0.49-0.8-0.71c-0.38-0.22-0.89-0.47-1.53-0.73c-0.64-0.27-1.45-0.58-2.43-0.94c-1.26-0.48-2.39-0.99-3.4-1.53
				c-1.01-0.55-1.86-1.18-2.56-1.89c-0.7-0.71-1.24-1.53-1.62-2.45c-0.38-0.92-0.57-1.99-0.57-3.19c0-1.48,0.27-2.8,0.8-3.97
				c0.53-1.16,1.27-2.15,2.2-2.96c0.94-0.81,2.06-1.43,3.36-1.85c1.3-0.42,2.71-0.63,4.22-0.63c1.31,0,2.52,0.14,3.63,0.42
				c1.1,0.28,2.09,0.66,2.96,1.15c0.87,0.49,1.59,1.05,2.18,1.68c0.59,0.63,1.04,1.29,1.34,1.99l-6.25,3.73
				c-0.34-0.56-0.82-1.04-1.45-1.45c-0.63-0.41-1.41-0.61-2.33-0.61C183.21,65,182.61,65.14,182.11,65.42z"/>
			<path class="st0" d="M199.73,58.5h11.16l5.37,13.47l5.75-13.47h10.83l1.47,29.79h-7.81l-1.05-21.36l-5.75,14.69h-7.39
				l-5.54-14.69l-1.05,21.36h-7.47L199.73,58.5z"/>
			<path class="st0" d="M244.59,88.29h-8.01l10.7-29.79h8.77l10.7,29.79h-8.43l-1.8-5.54H246.4L244.59,88.29z M248.37,76.54h6.13
				l-3.06-9.44L248.37,76.54z"/>
			<path class="st0" d="M290.84,58.5v6.88h-7.85v22.91h-7.97V65.38h-7.85V58.5H290.84z"/>
			<path class="st0" d="M314.25,65.42h-12.09v4.66h11.33v6.67h-11.33v4.62h12.25v6.92h-20.23V58.5h20.06V65.42z"/>
		</g>
	</g>
	<g>
		<path class="st0" d="M76.69,3.8c-2.78,1.5-12.75,6.96-14.35,9.21c-2.17,3.04-7.89,15.91-10.22,21.25h-4.58
			c2.66-5.88,9.6-20.97,11.8-23.37c2.44-2.67,12.8-8.69,15.05-9.99c0.25-0.15,0.57-0.1,0.77,0.11l1.7,1.8
			C77.13,3.12,77.06,3.61,76.69,3.8z"/>
		<path class="st0" d="M60.54,74.94c-0.15,1.13-0.39,2.19-0.71,3.19c-0.56,1.77-1.36,3.37-2.33,4.81
			c-0.43,9.01-3.55,19.48-4.33,20.11c-0.82,0.65-9.32-1.42-15.37-2.61c-0.96-1.2-2.21-3.11-2.14-4.92
			c-0.72,0.15-1.14,0.21-1.14,0.21s-0.84-0.09-2.22-0.35c-0.32,1.23-1.09,3.11-2.85,4.49c-3.9,0.57-7.61,2.21-9.3,3.19
			c-0.93,0.55-1.69,0.86-2.26,1.05c-0.65,0.22-1.35-0.16-1.55-0.82c-2.39-8.22-3.51-14.51-4.04-18.85
			c-0.01-0.03-0.03-0.04-0.04-0.06c-0.04-0.04-0.07-0.09-0.1-0.13c-2.95-4.02-4.63-9.4-3.5-16.6c0.2-1.3,0.49-2.66,0.88-4.09
			c0.4-1.46,0.9-2.99,1.52-4.59c1.34-3.5,2.12-5.87,2.47-7.7h42c0.34,1.83,1.12,4.21,2.47,7.7C60.46,65.45,61.11,70.7,60.54,74.94z"
			/>
		<path class="st0" d="M49.39,90.33c0.27-0.16,0.53-0.32,0.8-0.49C49.92,90,49.65,90.17,49.39,90.33z"/>
		<path class="st0" d="M50.58,89.58c0.39-0.26,0.78-0.53,1.17-0.81C51.36,89.05,50.97,89.32,50.58,89.58z"/>
		<path class="st0" d="M52.13,88.49c0.25-0.19,0.51-0.39,0.75-0.59C52.63,88.11,52.38,88.3,52.13,88.49z"/>
		<polygon class="st0" points="40.23,92.17 40.23,92.18 40.23,92.17 		"/>
		<path class="st0" d="M60.1,36.85v3.88c0,0.48-0.39,0.87-0.86,0.87h-0.95c-0.57,0.85-1.25,2.01-1.93,3.5
			c-0.54,1.16-0.9,2.14-1.02,3.24H13.69c-0.12-1.1-0.48-2.08-1.02-3.24c-0.69-1.48-1.37-2.64-1.94-3.5H9.79
			c-0.48,0-0.86-0.39-0.86-0.87v-3.88c0-0.48,0.39-0.86,0.86-0.86h49.44C59.71,35.98,60.1,36.37,60.1,36.85z"/>
		<path class="st0" d="M12.25,84.37l-0.08,0c-0.01-0.05-0.01-0.09-0.02-0.14C12.18,84.28,12.22,84.32,12.25,84.37z"/>
	</g>
</g>
</svg>
