<?xml version="1.0" encoding="utf-8"?>
<!-- Generator: Adobe Illustrator 26.3.1, SVG Export Plug-In . SVG Version: 6.00 Build 0)  -->
<svg version="1.1" id="Capa_1" xmlns="http://www.w3.org/2000/svg" xmlns:xlink="http://www.w3.org/1999/xlink" x="0px" y="0px"
	 viewBox="0 0 330 105" style="enable-background:new 0 0 330 105;" xml:space="preserve">
<style type="text/css">
	.st0{fill:#FFFFFF;}
	.st1{fill:#FC7F00;}
	.st2{fill:#DB4E00;}
	.st3{fill:#FE6601;}
</style>
<g>
	<g>
		<g>
			<path class="st0" d="M83.48,66.2c-0.81,0.38-1.51,0.91-2.08,1.58c-0.58,0.67-1.01,1.47-1.31,2.38c-0.3,0.91-0.44,1.9-0.44,2.97
				c0,1.21,0.19,2.32,0.57,3.35c0.38,1.02,0.94,1.9,1.68,2.63c0.74,0.73,1.66,1.31,2.76,1.73c1.1,0.42,2.34,0.63,3.75,0.63
				c1.43,0,2.74-0.22,3.92-0.65c1.18-0.44,2.13-0.86,2.86-1.28l3.03,6.48c-1.35,0.87-2.89,1.57-4.63,2.11
				c-1.74,0.53-3.69,0.8-5.85,0.8c-2.44,0-4.67-0.35-6.7-1.05c-2.02-0.7-3.76-1.72-5.2-3.05c-1.45-1.33-2.57-2.98-3.37-4.95
				s-1.2-4.21-1.2-6.74c0-2.41,0.39-4.56,1.18-6.42c0.79-1.87,1.85-3.43,3.2-4.7s2.93-2.22,4.76-2.86c1.82-0.65,3.78-0.97,5.85-0.97
				c1.52,0,2.88,0.15,4.11,0.46c1.22,0.31,2.31,0.72,3.26,1.24c0.95,0.52,1.78,1.12,2.48,1.81c0.7,0.69,1.31,1.41,1.81,2.17
				l-5.9,4.63c-0.62-0.84-1.38-1.53-2.27-2.06c-0.9-0.53-2.06-0.8-3.5-0.8C85.22,65.64,84.29,65.83,83.48,66.2z"/>
			<path class="st0" d="M109.8,58.6v22.78h10.91v7.12H101.8V58.6H109.8z"/>
			<path class="st0" d="M129.59,88.5h-8.04l10.74-29.9h8.8l10.74,29.9h-8.46l-1.81-5.56H131.4L129.59,88.5z M133.38,76.71h6.15
				l-3.07-9.48L133.38,76.71z"/>
			<path class="st0" d="M162.06,65.55c-0.51,0.28-0.76,0.7-0.76,1.26c0,0.73,0.48,1.32,1.43,1.77c0.95,0.45,2.27,0.97,3.96,1.56
				c1.24,0.45,2.34,0.93,3.31,1.45c0.97,0.52,1.79,1.14,2.46,1.85c0.67,0.72,1.19,1.54,1.54,2.46c0.35,0.93,0.53,2.02,0.53,3.28
				c0,1.52-0.27,2.87-0.8,4.06c-0.53,1.19-1.3,2.21-2.29,3.05c-1,0.84-2.2,1.49-3.62,1.94c-1.42,0.45-3.03,0.67-4.82,0.67
				c-2.11,0-4.06-0.29-5.87-0.86c-1.81-0.58-3.43-1.31-4.86-2.21l3.28-6.53c1.26,0.87,2.56,1.52,3.9,1.96
				c1.33,0.44,2.63,0.65,3.9,0.65c1.07,0,1.84-0.17,2.32-0.51c0.48-0.34,0.72-0.81,0.72-1.43c0-0.34-0.08-0.63-0.23-0.88
				c-0.15-0.25-0.42-0.49-0.8-0.72c-0.38-0.22-0.89-0.47-1.54-0.74c-0.65-0.27-1.46-0.58-2.44-0.95c-1.26-0.48-2.4-0.99-3.41-1.54
				c-1.01-0.55-1.87-1.18-2.57-1.9c-0.7-0.72-1.24-1.54-1.62-2.46c-0.38-0.93-0.57-1.99-0.57-3.2c0-1.49,0.27-2.81,0.8-3.98
				c0.53-1.17,1.27-2.15,2.21-2.97c0.94-0.81,2.06-1.43,3.37-1.85s2.72-0.63,4.23-0.63c1.32,0,2.53,0.14,3.64,0.42
				c1.11,0.28,2.1,0.67,2.97,1.16c0.87,0.49,1.6,1.05,2.19,1.68c0.59,0.63,1.04,1.3,1.35,2l-6.27,3.75
				c-0.34-0.56-0.82-1.05-1.45-1.45c-0.63-0.41-1.41-0.61-2.34-0.61C163.17,65.13,162.57,65.27,162.06,65.55z"/>
			<path class="st0" d="M186.23,65.55c-0.51,0.28-0.76,0.7-0.76,1.26c0,0.73,0.48,1.32,1.43,1.77c0.95,0.45,2.27,0.97,3.96,1.56
				c1.24,0.45,2.34,0.93,3.31,1.45c0.97,0.52,1.79,1.14,2.46,1.85c0.67,0.72,1.19,1.54,1.54,2.46c0.35,0.93,0.53,2.02,0.53,3.28
				c0,1.52-0.27,2.87-0.8,4.06c-0.53,1.19-1.3,2.21-2.29,3.05c-1,0.84-2.2,1.49-3.62,1.94c-1.42,0.45-3.03,0.67-4.82,0.67
				c-2.11,0-4.06-0.29-5.87-0.86c-1.81-0.58-3.43-1.31-4.86-2.21l3.28-6.53c1.26,0.87,2.56,1.52,3.9,1.96
				c1.33,0.44,2.63,0.65,3.9,0.65c1.07,0,1.84-0.17,2.32-0.51c0.48-0.34,0.72-0.81,0.72-1.43c0-0.34-0.08-0.63-0.23-0.88
				c-0.15-0.25-0.42-0.49-0.8-0.72c-0.38-0.22-0.89-0.47-1.54-0.74c-0.65-0.27-1.46-0.58-2.44-0.95c-1.26-0.48-2.4-0.99-3.41-1.54
				c-1.01-0.55-1.87-1.18-2.57-1.9c-0.7-0.72-1.24-1.54-1.62-2.46c-0.38-0.93-0.57-1.99-0.57-3.2c0-1.49,0.27-2.81,0.8-3.98
				c0.53-1.17,1.27-2.15,2.21-2.97c0.94-0.81,2.06-1.43,3.37-1.85s2.72-0.63,4.23-0.63c1.32,0,2.53,0.14,3.64,0.42
				c1.11,0.28,2.1,0.67,2.97,1.16c0.87,0.49,1.6,1.05,2.19,1.68c0.59,0.63,1.04,1.3,1.35,2l-6.27,3.75
				c-0.34-0.56-0.82-1.05-1.45-1.45c-0.63-0.41-1.41-0.61-2.34-0.61C187.34,65.13,186.74,65.27,186.23,65.55z"/>
			<path class="st1" d="M203.92,58.6h11.2l5.39,13.52l5.77-13.52h10.86l1.47,29.9h-7.83l-1.05-21.44l-5.77,14.74h-7.41L211,67.07
				l-1.05,21.44h-7.5L203.92,58.6z"/>
			<path class="st1" d="M248.94,88.5h-8.04l10.74-29.9h8.8l10.74,29.9h-8.46l-1.81-5.56h-10.15L248.94,88.5z M252.73,76.71h6.15
				l-3.07-9.48L252.73,76.71z"/>
			<path class="st1" d="M295.35,58.6v6.91h-7.88V88.5h-8V65.51h-7.88V58.6H295.35z"/>
			<path class="st1" d="M318.85,65.55h-12.13v4.67h11.37v6.7h-11.37v4.63h12.3v6.95h-20.3V58.6h20.13V65.55z"/>
		</g>
	</g>
	<g>
		<path class="st2" d="M78.9,0.92l1.7,1.81c0.28,0.3,0.21,0.79-0.16,0.99c-2.8,1.51-12.79,6.98-14.41,9.24
			c-2.77,3.88-11.27,23.68-11.27,23.68h-4.63c0,0,10.15-22.8,12.9-25.8c2.45-2.68,12.84-8.73,15.1-10.02
			C78.38,0.66,78.7,0.71,78.9,0.92z"/>
		<path class="st1" d="M64.23,75.11c-0.15,1.14-0.39,2.2-0.71,3.2c-0.56,1.77-1.37,3.38-2.34,4.83c0,0,0,0.01-0.01,0.01
			c-0.09,0.13-0.18,0.27-0.28,0.4c0,0.01-0.01,0.01-0.01,0.01c-0.09,0.12-0.18,0.25-0.27,0.37c-0.01,0.02-0.03,0.04-0.04,0.06
			c-0.09,0.12-0.18,0.24-0.27,0.35c0,0,0,0.01-0.01,0.01c-0.1,0.13-0.2,0.26-0.31,0.38c-0.1,0.12-0.2,0.23-0.3,0.35
			c-0.02,0.02-0.04,0.04-0.06,0.06c-0.09,0.1-0.18,0.21-0.27,0.31c-0.01,0.01-0.01,0.01-0.02,0.02c-0.11,0.12-0.21,0.24-0.32,0.35
			c-0.11,0.12-0.22,0.23-0.33,0.34c-0.13,0.13-0.26,0.26-0.39,0.38c-0.1,0.1-0.21,0.2-0.31,0.3c-0.02,0.02-0.03,0.03-0.05,0.05
			c-0.1,0.1-0.21,0.19-0.31,0.28c-0.12,0.11-0.24,0.21-0.36,0.32c-0.12,0.1-0.24,0.21-0.36,0.31c-0.01,0.01-0.03,0.03-0.04,0.04
			c-0.11,0.09-0.22,0.18-0.33,0.27c-0.25,0.2-0.5,0.4-0.76,0.59c-0.01,0.01-0.02,0.02-0.03,0.03c-0.12,0.09-0.23,0.17-0.35,0.26
			c-0.38,0.28-0.78,0.55-1.17,0.81c-0.03,0.02-0.07,0.04-0.1,0.07c-0.1,0.06-0.2,0.13-0.29,0.19c-0.26,0.17-0.53,0.33-0.8,0.49
			c-0.11,0.07-0.22,0.13-0.33,0.2c-0.03,0.01-0.05,0.03-0.08,0.04c-0.26,0.15-0.53,0.3-0.79,0.45c-0.15,0.08-0.3,0.16-0.45,0.24
			c-0.12,0.06-0.23,0.12-0.35,0.18c-0.01,0-0.01,0.01-0.02,0.01c-0.13,0.07-0.26,0.14-0.4,0.2c-0.11,0.05-0.21,0.11-0.32,0.16
			c-0.03,0.01-0.06,0.03-0.08,0.04c-0.13,0.06-0.25,0.12-0.38,0.18c-0.34,0.16-0.69,0.32-1.03,0.47c-0.13,0.06-0.26,0.12-0.4,0.17
			c-0.2,0.09-0.39,0.17-0.59,0.25c-0.06,0.03-0.13,0.05-0.19,0.08c-0.21,0.09-0.42,0.17-0.63,0.25c-0.11,0.04-0.22,0.09-0.33,0.13
			c-1.71,0.65-3.31,1.14-4.65,1.5c-0.1,0.03-0.2,0.05-0.29,0.08c-0.13,0.03-0.25,0.07-0.37,0.1c-0.05,0.01-0.11,0.03-0.16,0.04
			c-0.16,0.04-0.32,0.08-0.47,0.11c-0.07,0.02-0.13,0.03-0.2,0.05c-0.1,0.02-0.2,0.05-0.29,0.07c-0.06,0.01-0.12,0.03-0.18,0.04
			c-0.11,0.03-0.22,0.05-0.32,0.07c-0.07,0.01-0.14,0.03-0.2,0.04c-0.1,0.02-0.19,0.04-0.28,0.06c-0.73,0.15-1.14,0.21-1.14,0.21
			s-14.99-1.57-22.34-11.39c-0.03-0.04-0.07-0.09-0.1-0.13c-2.97-4.03-4.65-9.43-3.52-16.66c0.2-1.3,0.5-2.66,0.89-4.1
			c0.4-1.46,0.9-3,1.52-4.61c2.18-5.69,2.9-8.42,2.65-10.65h41.8c-0.25,2.23,0.47,4.96,2.65,10.65
			C64.16,65.58,64.81,70.85,64.23,75.11z"/>
		<path class="st1" d="M53.04,90.55c0.27-0.16,0.53-0.32,0.8-0.49C53.57,90.22,53.31,90.39,53.04,90.55z"/>
		<path class="st1" d="M54.23,89.8c0.39-0.26,0.79-0.53,1.17-0.81C55.02,89.27,54.63,89.54,54.23,89.8z"/>
		<path class="st1" d="M55.79,88.7c0.25-0.19,0.51-0.39,0.76-0.59C56.29,88.32,56.04,88.51,55.79,88.7z"/>
		<path class="st1" d="M35.88,95.6c-0.33,1.24-1.09,3.13-2.86,4.51c-3.91,0.57-7.64,2.21-9.33,3.2c-0.94,0.55-1.69,0.87-2.26,1.06
			c-0.65,0.22-1.36-0.16-1.55-0.82c-2.4-8.25-3.53-14.57-4.05-18.93C21.43,92.07,31.43,94.75,35.88,95.6z"/>
		<path class="st1" d="M61.18,83.14c-0.43,9.04-3.57,19.55-4.35,20.18c-0.82,0.66-9.36-1.43-15.43-2.62
			c-0.97-1.2-2.21-3.12-2.15-4.94c0.09-0.02,0.18-0.04,0.28-0.06c0.06-0.01,0.13-0.03,0.2-0.04c0.1-0.02,0.21-0.05,0.32-0.07
			c0.06-0.01,0.12-0.03,0.18-0.04c0.09-0.02,0.19-0.04,0.29-0.07c0.06-0.01,0.13-0.03,0.2-0.05c0.15-0.04,0.31-0.07,0.47-0.11
			c0.05-0.01,0.11-0.03,0.16-0.04c0.12-0.03,0.25-0.06,0.37-0.1c0.1-0.03,0.19-0.05,0.29-0.08c1.34-0.36,2.93-0.85,4.65-1.5
			c0.11-0.04,0.22-0.08,0.33-0.13c0.21-0.08,0.42-0.16,0.63-0.25c0.06-0.03,0.13-0.05,0.19-0.08c0.2-0.08,0.39-0.16,0.59-0.25
			c0.13-0.06,0.26-0.11,0.4-0.17c0.34-0.15,0.68-0.31,1.03-0.47c0.12-0.06,0.25-0.12,0.38-0.18c0.03-0.01,0.05-0.03,0.08-0.04
			c0.11-0.05,0.21-0.1,0.32-0.16c0.13-0.07,0.26-0.13,0.4-0.2c0.01,0,0.01-0.01,0.02-0.01c0.12-0.06,0.23-0.12,0.35-0.18
			c0.15-0.08,0.3-0.16,0.45-0.24c0.27-0.14,0.53-0.29,0.79-0.45c0.03-0.01,0.05-0.03,0.08-0.04c0.11-0.07,0.22-0.13,0.33-0.2
			c0.27-0.16,0.53-0.32,0.8-0.49c0.1-0.06,0.2-0.13,0.29-0.19c0.03-0.02,0.07-0.04,0.1-0.07c0.39-0.26,0.79-0.53,1.17-0.81
			c0.12-0.09,0.23-0.17,0.35-0.26c0.01-0.01,0.02-0.02,0.03-0.03c0.25-0.19,0.51-0.39,0.76-0.59c0.11-0.09,0.22-0.18,0.33-0.27
			c0.01-0.01,0.03-0.02,0.04-0.04c0.12-0.1,0.24-0.2,0.36-0.31c0.12-0.11,0.24-0.21,0.36-0.32c0.1-0.09,0.21-0.19,0.31-0.28
			c0.02-0.01,0.03-0.03,0.05-0.05c0.1-0.1,0.21-0.2,0.31-0.3c0.13-0.13,0.26-0.25,0.39-0.38c0.11-0.11,0.22-0.23,0.33-0.34
			c0.11-0.12,0.22-0.23,0.32-0.35c0.01-0.01,0.01-0.01,0.02-0.02c0.09-0.1,0.18-0.21,0.27-0.31c0.02-0.02,0.04-0.04,0.06-0.06
			c0.1-0.12,0.2-0.23,0.3-0.35c0.1-0.13,0.21-0.25,0.31-0.38c0,0,0,0,0.01-0.01c0.09-0.12,0.18-0.23,0.27-0.35
			c0.01-0.02,0.03-0.04,0.04-0.06c0.09-0.12,0.18-0.24,0.27-0.37c0,0,0.01-0.01,0.01-0.01C60.99,83.41,61.08,83.28,61.18,83.14
			C61.17,83.14,61.18,83.14,61.18,83.14z"/>
		<path class="st1" d="M32.78,92.24l0.07,0.24c-0.14-0.02-0.27-0.05-0.41-0.07L32.78,92.24z"/>
		<polygon class="st1" points="43.85,92.4 43.85,92.4 43.85,92.4 		"/>
		<path class="st3" d="M39.25,95.75c-0.06,1.82,1.18,3.74,2.15,4.94c-1.57-0.31-2.98-0.56-4.05-0.69c-1.41-0.17-2.88-0.1-4.34,0.11
			c1.76-1.38,2.53-3.27,2.86-4.51c-4.44-0.85-14.45-3.53-20.06-10.98c-0.01-0.02-0.03-0.04-0.05-0.06c-0.03-0.04-0.07-0.09-0.1-0.13
			c-2.51-20.35,6.07-20.63,4.94-36.02h4.21c0.39,8.31-4.21,18.39-4.14,27.7c0.02,2.87,0.48,5.67,1.68,8.32
			c0.62,1.37,2.21,3.12,3.29,4.23c11.71,12.07,31.39,0.15,35.52-5.52C55.27,91.91,43.04,94.99,39.25,95.75z"/>
		<path class="st3" d="M63.79,36.88v3.9c0,0.48-0.39,0.87-0.87,0.87h-0.95c-0.57,0.86-1.25,2.03-1.94,3.51
			c-0.54,1.17-0.9,2.15-1.02,3.26h-41.8c-0.12-1.11-0.48-2.09-1.02-3.26c-0.69-1.48-1.37-2.65-1.94-3.51H13.3
			c-0.48,0-0.87-0.39-0.87-0.87v-3.9c0-0.48,0.39-0.87,0.87-0.87h49.62C63.4,36.01,63.79,36.4,63.79,36.88z"/>
		<path class="st1" d="M15.77,84.57l-0.08,0c-0.01-0.05-0.01-0.09-0.02-0.14C15.7,84.48,15.74,84.52,15.77,84.57z"/>
	</g>
</g>
</svg>
