<?xml version="1.0" encoding="utf-8"?>
<!-- Generator: Adobe Illustrator 26.3.1, SVG Export Plug-In . SVG Version: 6.00 Build 0)  -->
<svg version="1.1" xmlns="http://www.w3.org/2000/svg" xmlns:xlink="http://www.w3.org/1999/xlink" x="0px" y="0px"
	 viewBox="0 0 16 16" style="enable-background:new 0 0 16 16;" xml:space="preserve">
<style type="text/css">
	.st0{fill:#DB4E00;}
	.st1{fill:#FC7F00;}
	.st2{fill:#FE6601;}
</style>
<g id="Capa_1">
</g>
<g id="Modo_de_aislamiento">
	<g>
		<path class="st0" d="M13.03,0.03l0.26,0.28c0.04,0.05,0.03,0.12-0.02,0.15c-0.43,0.23-1.97,1.08-2.22,1.43
			c-0.43,0.6-1.74,3.65-1.74,3.65H8.59c0,0,1.57-3.52,1.99-3.98c0.38-0.41,1.98-1.35,2.33-1.55C12.95-0.01,13,0,13.03,0.03z"/>
		<path class="st1" d="M10.77,11.48c-0.02,0.18-0.06,0.34-0.11,0.49c-0.09,0.27-0.21,0.52-0.36,0.74c0,0,0,0,0,0
			c-0.01,0.02-0.03,0.04-0.04,0.06c0,0,0,0,0,0c-0.01,0.02-0.03,0.04-0.04,0.06c0,0,0,0.01-0.01,0.01
			c-0.01,0.02-0.03,0.04-0.04,0.05c0,0,0,0,0,0c-0.02,0.02-0.03,0.04-0.05,0.06c-0.02,0.02-0.03,0.04-0.05,0.05
			c0,0-0.01,0.01-0.01,0.01c-0.01,0.02-0.03,0.03-0.04,0.05c0,0,0,0,0,0c-0.02,0.02-0.03,0.04-0.05,0.05
			c-0.02,0.02-0.03,0.04-0.05,0.05c-0.02,0.02-0.04,0.04-0.06,0.06c-0.02,0.02-0.03,0.03-0.05,0.05c0,0-0.01,0-0.01,0.01
			c-0.02,0.01-0.03,0.03-0.05,0.04c-0.02,0.02-0.04,0.03-0.06,0.05c-0.02,0.02-0.04,0.03-0.06,0.05c0,0,0,0-0.01,0.01
			c-0.02,0.01-0.03,0.03-0.05,0.04c-0.04,0.03-0.08,0.06-0.12,0.09c0,0,0,0-0.01,0c-0.02,0.01-0.04,0.03-0.05,0.04
			c-0.06,0.04-0.12,0.08-0.18,0.12c-0.01,0-0.01,0.01-0.02,0.01c-0.02,0.01-0.03,0.02-0.05,0.03c-0.04,0.03-0.08,0.05-0.12,0.08
			c-0.02,0.01-0.03,0.02-0.05,0.03c0,0-0.01,0-0.01,0.01c-0.04,0.02-0.08,0.05-0.12,0.07C8.83,13.98,8.81,13.99,8.79,14
			c-0.02,0.01-0.04,0.02-0.05,0.03c0,0,0,0,0,0c-0.02,0.01-0.04,0.02-0.06,0.03c-0.02,0.01-0.03,0.02-0.05,0.02
			c0,0-0.01,0-0.01,0.01c-0.02,0.01-0.04,0.02-0.06,0.03c-0.05,0.03-0.11,0.05-0.16,0.07c-0.02,0.01-0.04,0.02-0.06,0.03
			c-0.03,0.01-0.06,0.03-0.09,0.04c-0.01,0-0.02,0.01-0.03,0.01c-0.03,0.01-0.07,0.03-0.1,0.04c-0.02,0.01-0.03,0.01-0.05,0.02
			c-0.26,0.1-0.51,0.18-0.72,0.23c-0.02,0-0.03,0.01-0.05,0.01c-0.02,0.01-0.04,0.01-0.06,0.01c-0.01,0-0.02,0-0.03,0.01
			c-0.03,0.01-0.05,0.01-0.07,0.02c-0.01,0-0.02,0-0.03,0.01c-0.02,0-0.03,0.01-0.04,0.01c-0.01,0-0.02,0-0.03,0.01
			c-0.02,0-0.03,0.01-0.05,0.01c-0.01,0-0.02,0-0.03,0.01c-0.01,0-0.03,0.01-0.04,0.01c-0.11,0.02-0.18,0.03-0.18,0.03
			s-2.31-0.24-3.45-1.76c-0.01-0.01-0.01-0.01-0.02-0.02c-0.46-0.62-0.72-1.46-0.54-2.57c0.03-0.2,0.08-0.41,0.14-0.63
			C2.93,9.49,3.01,9.25,3.11,9c0.34-0.88,0.45-1.3,0.41-1.64h6.45C9.93,7.7,10.04,8.12,10.37,9C10.76,10.01,10.86,10.82,10.77,11.48
			z"/>
		<path class="st1" d="M9.04,13.86c0.04-0.02,0.08-0.05,0.12-0.08C9.12,13.81,9.08,13.83,9.04,13.86z"/>
		<path class="st1" d="M9.23,13.74c0.06-0.04,0.12-0.08,0.18-0.12C9.35,13.66,9.29,13.7,9.23,13.74z"/>
		<path class="st1" d="M9.47,13.57c0.04-0.03,0.08-0.06,0.12-0.09C9.54,13.51,9.51,13.54,9.47,13.57z"/>
		<path class="st1" d="M6.39,14.64c-0.05,0.19-0.17,0.48-0.44,0.7c-0.6,0.09-1.18,0.34-1.44,0.49c-0.14,0.08-0.26,0.13-0.35,0.16
			c-0.1,0.03-0.21-0.02-0.24-0.13c-0.37-1.27-0.54-2.25-0.63-2.92C4.17,14.09,5.71,14.51,6.39,14.64z"/>
		<path class="st1" d="M10.3,12.71c-0.07,1.39-0.55,3.02-0.67,3.11c-0.13,0.1-1.44-0.22-2.38-0.4c-0.15-0.19-0.34-0.48-0.33-0.76
			c0.01,0,0.03-0.01,0.04-0.01c0.01,0,0.02,0,0.03-0.01c0.02,0,0.03-0.01,0.05-0.01c0.01,0,0.02,0,0.03-0.01
			c0.01,0,0.03-0.01,0.04-0.01c0.01,0,0.02,0,0.03-0.01c0.02-0.01,0.05-0.01,0.07-0.02c0.01,0,0.02,0,0.03-0.01
			c0.02,0,0.04-0.01,0.06-0.01c0.01,0,0.03-0.01,0.05-0.01c0.21-0.06,0.45-0.13,0.72-0.23c0.02-0.01,0.03-0.01,0.05-0.02
			c0.03-0.01,0.06-0.03,0.1-0.04c0.01,0,0.02-0.01,0.03-0.01c0.03-0.01,0.06-0.03,0.09-0.04c0.02-0.01,0.04-0.02,0.06-0.03
			c0.05-0.02,0.11-0.05,0.16-0.07c0.02-0.01,0.04-0.02,0.06-0.03c0,0,0.01,0,0.01-0.01c0.02-0.01,0.03-0.02,0.05-0.02
			c0.02-0.01,0.04-0.02,0.06-0.03c0,0,0,0,0,0c0.02-0.01,0.04-0.02,0.05-0.03c0.02-0.01,0.05-0.02,0.07-0.04
			c0.04-0.02,0.08-0.05,0.12-0.07c0,0,0.01,0,0.01-0.01c0.02-0.01,0.03-0.02,0.05-0.03c0.04-0.02,0.08-0.05,0.12-0.08
			c0.02-0.01,0.03-0.02,0.05-0.03c0.01,0,0.01-0.01,0.02-0.01c0.06-0.04,0.12-0.08,0.18-0.12c0.02-0.01,0.04-0.03,0.05-0.04
			c0,0,0,0,0.01,0c0.04-0.03,0.08-0.06,0.12-0.09c0.02-0.01,0.03-0.03,0.05-0.04c0,0,0,0,0.01-0.01c0.02-0.02,0.04-0.03,0.06-0.05
			c0.02-0.02,0.04-0.03,0.06-0.05c0.02-0.01,0.03-0.03,0.05-0.04c0,0,0.01,0,0.01-0.01c0.02-0.02,0.03-0.03,0.05-0.05
			c0.02-0.02,0.04-0.04,0.06-0.06c0.02-0.02,0.03-0.03,0.05-0.05c0.02-0.02,0.03-0.04,0.05-0.05c0,0,0,0,0,0
			c0.01-0.02,0.03-0.03,0.04-0.05c0,0,0.01-0.01,0.01-0.01c0.02-0.02,0.03-0.04,0.05-0.05c0.02-0.02,0.03-0.04,0.05-0.06
			c0,0,0,0,0,0c0.01-0.02,0.03-0.04,0.04-0.05c0,0,0-0.01,0.01-0.01c0.01-0.02,0.03-0.04,0.04-0.06c0,0,0,0,0,0
			C10.27,12.76,10.28,12.74,10.3,12.71C10.3,12.71,10.3,12.71,10.3,12.71z"/>
		<path class="st1" d="M5.92,14.12l0.01,0.04c-0.02,0-0.04-0.01-0.06-0.01L5.92,14.12z"/>
		<polygon class="st1" points="7.62,14.14 7.62,14.14 7.62,14.14 		"/>
		<path class="st2" d="M6.92,14.66c-0.01,0.28,0.18,0.58,0.33,0.76C7,15.37,6.79,15.34,6.62,15.32c-0.22-0.03-0.44-0.02-0.67,0.02
			c0.27-0.21,0.39-0.5,0.44-0.7c-0.69-0.13-2.23-0.54-3.09-1.69c0,0,0-0.01-0.01-0.01c-0.01-0.01-0.01-0.01-0.02-0.02
			C2.89,9.77,4.21,9.73,4.04,7.36h0.65c0.06,1.28-0.65,2.84-0.64,4.27c0,0.44,0.07,0.87,0.26,1.28c0.09,0.21,0.34,0.48,0.51,0.65
			c1.81,1.86,4.84,0.02,5.48-0.85C9.39,14.07,7.5,14.54,6.92,14.66z"/>
		<path class="st2" d="M10.7,5.58v0.6c0,0.07-0.06,0.13-0.13,0.13h-0.15c-0.09,0.13-0.19,0.31-0.3,0.54
			c-0.08,0.18-0.14,0.33-0.16,0.5H3.51C3.5,7.19,3.44,7.03,3.36,6.85c-0.11-0.23-0.21-0.41-0.3-0.54H2.91
			c-0.07,0-0.13-0.06-0.13-0.13v-0.6c0-0.07,0.06-0.13,0.13-0.13h7.65C10.64,5.44,10.7,5.5,10.7,5.58z"/>
		<path class="st1" d="M3.29,12.93l-0.01,0c0-0.01,0-0.01,0-0.02C3.28,12.92,3.29,12.93,3.29,12.93z"/>
	</g>
</g>
</svg>
