<?xml version="1.0" encoding="utf-8"?>
<!-- Generator: Adobe Illustrator 26.3.1, SVG Export Plug-In . SVG Version: 6.00 Build 0)  -->
<svg version="1.1" xmlns="http://www.w3.org/2000/svg" xmlns:xlink="http://www.w3.org/1999/xlink" x="0px" y="0px"
	 viewBox="0 0 16 16" style="enable-background:new 0 0 16 16;" xml:space="preserve">
<style type="text/css">
	.st0{fill:#DB4E00;}
	.st1{fill:#FFFFFF;}
	.st2{fill:#FC7F00;}
	.st3{fill:#FE6601;}
</style>
<g id="Capa_1">
</g>
<g id="Modo_de_aislamiento">
	<circle class="st0" cx="7.93" cy="8" r="7.93"/>
	<g>
		<path class="st1" d="M12.42,2.1l0.19,0.21c0.03,0.03,0.02,0.09-0.02,0.11c-0.32,0.17-1.46,0.8-1.65,1.06
			c-0.32,0.44-1.29,2.71-1.29,2.71H9.14c0,0,1.16-2.6,1.47-2.95c0.28-0.31,1.47-1,1.73-1.15C12.36,2.07,12.4,2.07,12.42,2.1z"/>
		<path class="st2" d="M10.75,10.57c-0.02,0.13-0.05,0.25-0.08,0.37c-0.06,0.2-0.16,0.39-0.27,0.55c0,0,0,0,0,0
			c-0.01,0.02-0.02,0.03-0.03,0.05c0,0,0,0,0,0c-0.01,0.01-0.02,0.03-0.03,0.04c0,0,0,0,0,0.01c-0.01,0.01-0.02,0.03-0.03,0.04
			c0,0,0,0,0,0c-0.01,0.01-0.02,0.03-0.04,0.04c-0.01,0.01-0.02,0.03-0.03,0.04c0,0,0,0-0.01,0.01c-0.01,0.01-0.02,0.02-0.03,0.04
			c0,0,0,0,0,0c-0.01,0.01-0.02,0.03-0.04,0.04c-0.01,0.01-0.02,0.03-0.04,0.04c-0.01,0.01-0.03,0.03-0.04,0.04
			c-0.01,0.01-0.02,0.02-0.04,0.03c0,0,0,0-0.01,0.01c-0.01,0.01-0.02,0.02-0.04,0.03c-0.01,0.01-0.03,0.02-0.04,0.04
			C9.94,12,9.93,12.01,9.91,12.02c0,0,0,0-0.01,0c-0.01,0.01-0.03,0.02-0.04,0.03c-0.03,0.02-0.06,0.05-0.09,0.07c0,0,0,0,0,0
			c-0.01,0.01-0.03,0.02-0.04,0.03c-0.04,0.03-0.09,0.06-0.13,0.09c0,0-0.01,0.01-0.01,0.01c-0.01,0.01-0.02,0.01-0.03,0.02
			c-0.03,0.02-0.06,0.04-0.09,0.06c-0.01,0.01-0.03,0.02-0.04,0.02c0,0-0.01,0-0.01,0.01c-0.03,0.02-0.06,0.03-0.09,0.05
			c-0.02,0.01-0.03,0.02-0.05,0.03c-0.01,0.01-0.03,0.01-0.04,0.02c0,0,0,0,0,0c-0.02,0.01-0.03,0.02-0.05,0.02
			c-0.01,0.01-0.02,0.01-0.04,0.02c0,0-0.01,0-0.01,0c-0.01,0.01-0.03,0.01-0.04,0.02c-0.04,0.02-0.08,0.04-0.12,0.05
			c-0.02,0.01-0.03,0.01-0.05,0.02c-0.02,0.01-0.05,0.02-0.07,0.03c-0.01,0-0.01,0.01-0.02,0.01c-0.02,0.01-0.05,0.02-0.07,0.03
			c-0.01,0-0.03,0.01-0.04,0.01c-0.2,0.07-0.38,0.13-0.53,0.17c-0.01,0-0.02,0.01-0.03,0.01c-0.01,0-0.03,0.01-0.04,0.01
			c-0.01,0-0.01,0-0.02,0c-0.02,0-0.04,0.01-0.05,0.01c-0.01,0-0.02,0-0.02,0.01c-0.01,0-0.02,0.01-0.03,0.01c-0.01,0-0.01,0-0.02,0
			c-0.01,0-0.03,0.01-0.04,0.01c-0.01,0-0.02,0-0.02,0c-0.01,0-0.02,0-0.03,0.01c-0.08,0.02-0.13,0.02-0.13,0.02
			s-1.71-0.18-2.55-1.3c0-0.01-0.01-0.01-0.01-0.02c-0.34-0.46-0.53-1.08-0.4-1.9c0.02-0.15,0.06-0.3,0.1-0.47
			C4.94,9.1,5,8.92,5.07,8.74c0.25-0.65,0.33-0.96,0.3-1.22h4.78c-0.03,0.25,0.05,0.57,0.3,1.22C10.74,9.49,10.81,10.09,10.75,10.57
			z"/>
		<path class="st2" d="M9.47,12.34c0.03-0.02,0.06-0.04,0.09-0.06C9.53,12.3,9.5,12.32,9.47,12.34z"/>
		<path class="st2" d="M9.61,12.25c0.05-0.03,0.09-0.06,0.13-0.09C9.69,12.19,9.65,12.22,9.61,12.25z"/>
		<path class="st2" d="M9.78,12.13c0.03-0.02,0.06-0.04,0.09-0.07C9.84,12.08,9.81,12.11,9.78,12.13z"/>
		<path class="st2" d="M7.51,12.92c-0.04,0.14-0.12,0.36-0.33,0.52c-0.45,0.07-0.87,0.25-1.07,0.37c-0.11,0.06-0.19,0.1-0.26,0.12
			c-0.07,0.02-0.16-0.02-0.18-0.09c-0.27-0.94-0.4-1.66-0.46-2.16C5.86,12.51,7,12.82,7.51,12.92z"/>
		<path class="st2" d="M10.4,11.49c-0.05,1.03-0.41,2.23-0.5,2.31c-0.09,0.08-1.07-0.16-1.76-0.3c-0.11-0.14-0.25-0.36-0.25-0.56
			c0.01,0,0.02,0,0.03-0.01c0.01,0,0.02,0,0.02,0c0.01,0,0.02-0.01,0.04-0.01c0.01,0,0.01,0,0.02,0c0.01,0,0.02,0,0.03-0.01
			c0.01,0,0.02,0,0.02-0.01c0.02,0,0.04-0.01,0.05-0.01c0.01,0,0.01,0,0.02,0c0.01,0,0.03-0.01,0.04-0.01
			c0.01,0,0.02-0.01,0.03-0.01c0.15-0.04,0.34-0.1,0.53-0.17c0.01,0,0.03-0.01,0.04-0.01c0.02-0.01,0.05-0.02,0.07-0.03
			c0.01,0,0.01-0.01,0.02-0.01c0.02-0.01,0.04-0.02,0.07-0.03c0.02-0.01,0.03-0.01,0.05-0.02c0.04-0.02,0.08-0.03,0.12-0.05
			c0.01-0.01,0.03-0.01,0.04-0.02c0,0,0.01,0,0.01,0c0.01-0.01,0.02-0.01,0.04-0.02c0.02-0.01,0.03-0.02,0.05-0.02c0,0,0,0,0,0
			c0.01-0.01,0.03-0.01,0.04-0.02c0.02-0.01,0.03-0.02,0.05-0.03c0.03-0.02,0.06-0.03,0.09-0.05c0,0,0.01,0,0.01-0.01
			c0.01-0.01,0.03-0.02,0.04-0.02c0.03-0.02,0.06-0.04,0.09-0.06c0.01-0.01,0.02-0.01,0.03-0.02c0,0,0.01-0.01,0.01-0.01
			c0.05-0.03,0.09-0.06,0.13-0.09c0.01-0.01,0.03-0.02,0.04-0.03c0,0,0,0,0,0c0.03-0.02,0.06-0.04,0.09-0.07
			c0.01-0.01,0.03-0.02,0.04-0.03c0,0,0,0,0.01,0c0.01-0.01,0.03-0.02,0.04-0.04c0.01-0.01,0.03-0.02,0.04-0.04
			c0.01-0.01,0.02-0.02,0.04-0.03c0,0,0,0,0.01-0.01c0.01-0.01,0.02-0.02,0.04-0.03c0.01-0.01,0.03-0.03,0.04-0.04
			c0.01-0.01,0.03-0.03,0.04-0.04c0.01-0.01,0.02-0.03,0.04-0.04c0,0,0,0,0,0c0.01-0.01,0.02-0.02,0.03-0.04c0,0,0,0,0.01-0.01
			c0.01-0.01,0.02-0.03,0.03-0.04c0.01-0.01,0.02-0.03,0.04-0.04c0,0,0,0,0,0c0.01-0.01,0.02-0.03,0.03-0.04c0,0,0,0,0-0.01
			c0.01-0.01,0.02-0.03,0.03-0.04c0,0,0,0,0,0C10.38,11.52,10.39,11.51,10.4,11.49C10.4,11.49,10.4,11.49,10.4,11.49z"/>
		<path class="st2" d="M7.15,12.53l0.01,0.03c-0.02,0-0.03-0.01-0.05-0.01L7.15,12.53z"/>
		<polygon class="st2" points="8.42,12.55 8.42,12.55 8.42,12.55 		"/>
		<path class="st3" d="M7.89,12.93c-0.01,0.21,0.14,0.43,0.25,0.56c-0.18-0.04-0.34-0.06-0.46-0.08c-0.16-0.02-0.33-0.01-0.5,0.01
			c0.2-0.16,0.29-0.37,0.33-0.52c-0.51-0.1-1.65-0.4-2.29-1.25c0,0,0,0-0.01-0.01c0-0.01-0.01-0.01-0.01-0.02
			C4.91,9.31,5.89,9.28,5.76,7.52h0.48c0.04,0.95-0.48,2.1-0.47,3.17c0,0.33,0.06,0.65,0.19,0.95C6.03,11.8,6.22,12,6.34,12.12
			c1.34,1.38,3.59,0.02,4.06-0.63C9.72,12.49,8.33,12.85,7.89,12.93z"/>
		<path class="st3" d="M10.7,6.21v0.45c0,0.05-0.04,0.1-0.1,0.1h-0.11c-0.06,0.1-0.14,0.23-0.22,0.4c-0.06,0.13-0.1,0.25-0.12,0.37
			H5.38C5.36,7.4,5.32,7.28,5.26,7.15c-0.08-0.17-0.16-0.3-0.22-0.4H4.93c-0.05,0-0.1-0.04-0.1-0.1V6.21c0-0.05,0.04-0.1,0.1-0.1
			h5.67C10.65,6.11,10.7,6.15,10.7,6.21z"/>
		<path class="st2" d="M5.21,11.65L5.21,11.65c-0.01,0-0.01-0.01-0.01-0.02C5.2,11.64,5.21,11.65,5.21,11.65z"/>
	</g>
</g>
</svg>
