<?xml version="1.0" encoding="utf-8"?>
<!-- Generator: Adobe Illustrator 26.3.1, SVG Export Plug-In . SVG Version: 6.00 Build 0)  -->
<svg version="1.1" xmlns="http://www.w3.org/2000/svg" xmlns:xlink="http://www.w3.org/1999/xlink" x="0px" y="0px"
	 viewBox="0 0 16 16" style="enable-background:new 0 0 16 16;" xml:space="preserve">
<style type="text/css">
	.st0{fill:#1D1D1B;}
</style>
<g id="Capa_1">
</g>
<g id="Modo_de_aislamiento">
	<g>
		<path class="st0" d="M12.8,0.46c-0.43,0.23-1.97,1.08-2.22,1.43c-0.34,0.47-1.22,2.46-1.58,3.29H8.28
			c0.41-0.91,1.49-3.25,1.83-3.62c0.38-0.41,1.98-1.35,2.33-1.55c0.04-0.02,0.09-0.01,0.12,0.02l0.26,0.28
			C12.87,0.36,12.85,0.43,12.8,0.46z"/>
		<path class="st0" d="M10.3,11.48c-0.02,0.18-0.06,0.34-0.11,0.49c-0.09,0.27-0.21,0.52-0.36,0.74c-0.07,1.4-0.55,3.02-0.67,3.11
			c-0.13,0.1-1.44-0.22-2.38-0.4c-0.15-0.19-0.34-0.48-0.33-0.76c-0.11,0.02-0.18,0.03-0.18,0.03s-0.13-0.01-0.34-0.05
			c-0.05,0.19-0.17,0.48-0.44,0.69c-0.6,0.09-1.18,0.34-1.44,0.49c-0.14,0.08-0.26,0.13-0.35,0.16c-0.1,0.03-0.21-0.02-0.24-0.13
			c-0.37-1.27-0.54-2.25-0.62-2.92c0,0,0-0.01-0.01-0.01c-0.01-0.01-0.01-0.01-0.02-0.02c-0.46-0.62-0.72-1.46-0.54-2.57
			c0.03-0.2,0.08-0.41,0.14-0.63C2.46,9.49,2.54,9.25,2.63,9c0.21-0.54,0.33-0.91,0.38-1.19h6.5C9.57,8.09,9.69,8.46,9.9,9
			C10.28,10.01,10.39,10.82,10.3,11.48z"/>
		<path class="st0" d="M8.57,13.86c0.04-0.02,0.08-0.05,0.12-0.08C8.65,13.81,8.61,13.83,8.57,13.86z"/>
		<path class="st0" d="M8.75,13.74c0.06-0.04,0.12-0.08,0.18-0.12C8.88,13.66,8.81,13.7,8.75,13.74z"/>
		<path class="st0" d="M8.99,13.57c0.04-0.03,0.08-0.06,0.12-0.09C9.07,13.51,9.03,13.54,8.99,13.57z"/>
		<polygon class="st0" points="7.15,14.14 7.15,14.14 7.15,14.14 		"/>
		<path class="st0" d="M10.23,5.58v0.6c0,0.07-0.06,0.13-0.13,0.13H9.95c-0.09,0.13-0.19,0.31-0.3,0.54
			c-0.08,0.18-0.14,0.33-0.16,0.5H3.04c-0.02-0.17-0.07-0.32-0.16-0.5c-0.11-0.23-0.21-0.41-0.3-0.54H2.44
			c-0.07,0-0.13-0.06-0.13-0.13v-0.6c0-0.07,0.06-0.13,0.13-0.13h7.66C10.17,5.44,10.23,5.5,10.23,5.58z"/>
		<path class="st0" d="M2.82,12.93l-0.01,0c0-0.01,0-0.01,0-0.02C2.81,12.92,2.81,12.93,2.82,12.93z"/>
	</g>
</g>
</svg>
