<?xml version="1.0" encoding="utf-8"?>
<!-- Generator: Adobe Illustrator 26.3.1, SVG Export Plug-In . SVG Version: 6.00 Build 0)  -->
<svg version="1.1" xmlns="http://www.w3.org/2000/svg" xmlns:xlink="http://www.w3.org/1999/xlink" x="0px" y="0px"
	 viewBox="0 0 32 32" style="enable-background:new 0 0 32 32;" xml:space="preserve">
<style type="text/css">
	.st0{fill:#DB4E00;}
	.st1{fill:#FC7F00;}
	.st2{fill:#FE6601;}
</style>
<g id="Capa_1">
</g>
<g id="Modo_de_aislamiento">
	<g>
		<path class="st0" d="M27.61,0.3l0.52,0.55c0.09,0.09,0.06,0.24-0.05,0.3c-0.86,0.46-3.92,2.14-4.42,2.83
			c-0.85,1.19-3.46,7.26-3.46,7.26h-1.42c0,0,3.11-6.99,3.96-7.91c0.75-0.82,3.94-2.68,4.63-3.07C27.45,0.22,27.55,0.23,27.61,0.3z"
			/>
		<path class="st1" d="M23.12,23.04c-0.05,0.35-0.12,0.68-0.22,0.98c-0.17,0.54-0.42,1.04-0.72,1.48c0,0,0,0,0,0
			c-0.03,0.04-0.06,0.08-0.08,0.12c0,0,0,0,0,0c-0.03,0.04-0.05,0.08-0.08,0.11c0,0.01-0.01,0.01-0.01,0.02
			c-0.03,0.04-0.05,0.07-0.08,0.11c0,0,0,0,0,0c-0.03,0.04-0.06,0.08-0.09,0.12c-0.03,0.04-0.06,0.07-0.09,0.11
			c-0.01,0.01-0.01,0.01-0.02,0.02c-0.03,0.03-0.06,0.06-0.08,0.1c0,0,0,0-0.01,0.01c-0.03,0.04-0.07,0.07-0.1,0.11
			c-0.03,0.04-0.07,0.07-0.1,0.1c-0.04,0.04-0.08,0.08-0.12,0.12c-0.03,0.03-0.06,0.06-0.1,0.09c0,0-0.01,0.01-0.02,0.01
			c-0.03,0.03-0.06,0.06-0.09,0.09c-0.04,0.03-0.07,0.07-0.11,0.1c-0.04,0.03-0.07,0.06-0.11,0.09c0,0-0.01,0.01-0.01,0.01
			c-0.03,0.03-0.07,0.06-0.1,0.08c-0.08,0.06-0.15,0.12-0.23,0.18c0,0-0.01,0.01-0.01,0.01c-0.04,0.03-0.07,0.05-0.11,0.08
			c-0.12,0.09-0.24,0.17-0.36,0.25c-0.01,0.01-0.02,0.01-0.03,0.02c-0.03,0.02-0.06,0.04-0.09,0.06c-0.08,0.05-0.16,0.1-0.24,0.15
			c-0.03,0.02-0.07,0.04-0.1,0.06c-0.01,0-0.02,0.01-0.02,0.01c-0.08,0.05-0.16,0.09-0.24,0.14c-0.05,0.03-0.09,0.05-0.14,0.07
			c-0.04,0.02-0.07,0.04-0.11,0.06c0,0,0,0,0,0c-0.04,0.02-0.08,0.04-0.12,0.06c-0.03,0.02-0.07,0.03-0.1,0.05
			c-0.01,0-0.02,0.01-0.03,0.01c-0.04,0.02-0.08,0.04-0.12,0.06c-0.11,0.05-0.21,0.1-0.31,0.14c-0.04,0.02-0.08,0.04-0.12,0.05
			c-0.06,0.03-0.12,0.05-0.18,0.08c-0.02,0.01-0.04,0.02-0.06,0.02c-0.07,0.03-0.13,0.05-0.19,0.08c-0.03,0.01-0.07,0.03-0.1,0.04
			c-0.53,0.2-1.01,0.35-1.42,0.46c-0.03,0.01-0.06,0.02-0.09,0.02c-0.04,0.01-0.08,0.02-0.11,0.03c-0.02,0-0.03,0.01-0.05,0.01
			c-0.05,0.01-0.1,0.02-0.14,0.03c-0.02,0-0.04,0.01-0.06,0.01c-0.03,0.01-0.06,0.01-0.09,0.02c-0.02,0-0.04,0.01-0.06,0.01
			c-0.03,0.01-0.07,0.02-0.1,0.02c-0.02,0-0.04,0.01-0.06,0.01c-0.03,0.01-0.06,0.01-0.09,0.02c-0.22,0.04-0.35,0.06-0.35,0.06
			s-4.6-0.48-6.85-3.49c-0.01-0.01-0.02-0.03-0.03-0.04c-0.91-1.24-1.42-2.89-1.08-5.11c0.06-0.4,0.15-0.82,0.27-1.26
			c0.12-0.45,0.28-0.92,0.47-1.41c0.67-1.75,0.89-2.58,0.81-3.26h12.82c-0.08,0.68,0.15,1.52,0.81,3.26
			C23.09,20.12,23.29,21.73,23.12,23.04z"/>
		<path class="st1" d="M19.68,27.77c0.08-0.05,0.16-0.1,0.24-0.15C19.85,27.67,19.77,27.72,19.68,27.77z"/>
		<path class="st1" d="M20.05,27.54c0.12-0.08,0.24-0.16,0.36-0.25C20.29,27.38,20.17,27.46,20.05,27.54z"/>
		<path class="st1" d="M20.53,27.21c0.08-0.06,0.16-0.12,0.23-0.18C20.68,27.09,20.6,27.15,20.53,27.21z"/>
		<path class="st1" d="M14.42,29.32c-0.1,0.38-0.34,0.96-0.88,1.38c-1.2,0.18-2.34,0.68-2.86,0.98c-0.29,0.17-0.52,0.27-0.69,0.32
			c-0.2,0.07-0.42-0.05-0.48-0.25c-0.74-2.53-1.08-4.47-1.24-5.8C9.99,28.24,13.06,29.06,14.42,29.32z"/>
		<path class="st1" d="M22.18,25.5c-0.13,2.77-1.09,5.99-1.33,6.19c-0.25,0.2-2.87-0.44-4.73-0.8c-0.3-0.37-0.68-0.96-0.66-1.51
			c0.03-0.01,0.06-0.01,0.09-0.02c0.02,0,0.04-0.01,0.06-0.01c0.03-0.01,0.06-0.01,0.1-0.02c0.02,0,0.04-0.01,0.06-0.01
			c0.03-0.01,0.06-0.01,0.09-0.02c0.02,0,0.04-0.01,0.06-0.01c0.05-0.01,0.09-0.02,0.14-0.03c0.02,0,0.03-0.01,0.05-0.01
			c0.04-0.01,0.08-0.02,0.11-0.03c0.03-0.01,0.06-0.02,0.09-0.02c0.41-0.11,0.9-0.26,1.42-0.46c0.03-0.01,0.07-0.03,0.1-0.04
			c0.06-0.02,0.13-0.05,0.19-0.08c0.02-0.01,0.04-0.02,0.06-0.02c0.06-0.02,0.12-0.05,0.18-0.08c0.04-0.02,0.08-0.03,0.12-0.05
			c0.1-0.05,0.21-0.09,0.31-0.14c0.04-0.02,0.08-0.04,0.12-0.06c0.01,0,0.02-0.01,0.03-0.01c0.03-0.02,0.07-0.03,0.1-0.05
			c0.04-0.02,0.08-0.04,0.12-0.06c0,0,0,0,0,0c0.04-0.02,0.07-0.04,0.11-0.06c0.05-0.02,0.09-0.05,0.14-0.07
			c0.08-0.04,0.16-0.09,0.24-0.14c0.01,0,0.02-0.01,0.02-0.01c0.03-0.02,0.07-0.04,0.1-0.06c0.08-0.05,0.16-0.1,0.24-0.15
			c0.03-0.02,0.06-0.04,0.09-0.06c0.01-0.01,0.02-0.01,0.03-0.02c0.12-0.08,0.24-0.16,0.36-0.25c0.04-0.03,0.07-0.05,0.11-0.08
			c0,0,0.01-0.01,0.01-0.01c0.08-0.06,0.16-0.12,0.23-0.18c0.03-0.03,0.07-0.06,0.1-0.08c0,0,0.01-0.01,0.01-0.01
			c0.04-0.03,0.07-0.06,0.11-0.09c0.04-0.03,0.07-0.06,0.11-0.1c0.03-0.03,0.06-0.06,0.09-0.09c0,0,0.01-0.01,0.02-0.01
			c0.03-0.03,0.06-0.06,0.1-0.09c0.04-0.04,0.08-0.08,0.12-0.12c0.03-0.03,0.07-0.07,0.1-0.1c0.03-0.04,0.07-0.07,0.1-0.11
			c0,0,0,0,0.01-0.01c0.03-0.03,0.06-0.06,0.08-0.1c0.01-0.01,0.01-0.01,0.02-0.02c0.03-0.04,0.06-0.07,0.09-0.11
			c0.03-0.04,0.06-0.08,0.09-0.12c0,0,0,0,0,0c0.03-0.04,0.06-0.07,0.08-0.11c0-0.01,0.01-0.01,0.01-0.02
			c0.03-0.04,0.06-0.07,0.08-0.11c0,0,0,0,0,0C22.12,25.58,22.15,25.54,22.18,25.5C22.18,25.5,22.18,25.5,22.18,25.5z"/>
		<path class="st1" d="M13.47,28.29l0.02,0.07c-0.04-0.01-0.08-0.01-0.13-0.02L13.47,28.29z"/>
		<polygon class="st1" points="16.87,28.34 16.87,28.34 16.87,28.34 		"/>
		<path class="st2" d="M15.46,29.37c-0.02,0.56,0.36,1.15,0.66,1.51c-0.48-0.1-0.91-0.17-1.24-0.21c-0.43-0.05-0.88-0.03-1.33,0.03
			c0.54-0.42,0.78-1,0.88-1.38c-1.36-0.26-4.43-1.08-6.15-3.37c0-0.01-0.01-0.01-0.01-0.02c-0.01-0.01-0.02-0.03-0.03-0.04
			c-0.77-6.24,1.86-6.32,1.52-11.04h1.29c0.12,2.55-1.29,5.64-1.27,8.49c0.01,0.88,0.15,1.74,0.51,2.55
			c0.19,0.42,0.68,0.96,1.01,1.3c3.59,3.7,9.62,0.04,10.89-1.69C20.37,28.19,16.62,29.13,15.46,29.37z"/>
		<path class="st2" d="M22.98,11.32v1.19c0,0.15-0.12,0.27-0.27,0.27h-0.29c-0.17,0.26-0.38,0.62-0.6,1.07
			c-0.17,0.36-0.28,0.66-0.31,1H8.7c-0.04-0.34-0.15-0.64-0.31-1c-0.21-0.45-0.42-0.81-0.59-1.07H7.5c-0.15,0-0.27-0.12-0.27-0.27
			v-1.19c0-0.15,0.12-0.27,0.27-0.27h15.21C22.86,11.05,22.98,11.17,22.98,11.32z"/>
		<path class="st1" d="M8.26,25.94l-0.03,0c0-0.01,0-0.03,0-0.04C8.24,25.91,8.25,25.92,8.26,25.94z"/>
	</g>
</g>
</svg>
