<svg xmlns="http://www.w3.org/2000/svg" version="1.1" xmlns:xlink="http://www.w3.org/1999/xlink" xmlns:svgjs="http://svgjs.dev/svgjs" width="1440" height="560" preserveAspectRatio="none" viewBox="0 0 1440 560"><g mask="url(&quot;#SvgjsMask1109&quot;)" fill="none"><rect width="1440" height="560" x="0" y="0" fill="rgba(15, 15, 15, 1)"></rect><path d="M0,355.969C70.966,365.729,144.964,357.66,208.074,323.769C273.88,288.43,329.334,232.477,358.225,163.596C386.695,95.718,377.646,20.056,365.941,-52.614C354.403,-124.244,347.023,-205.974,291.226,-252.349C236.315,-297.988,154.846,-276.385,84.206,-286.779C24.915,-295.503,-33.028,-325.196,-90.592,-308.527C-148.234,-291.835,-184.238,-238.804,-226.968,-196.669C-273.563,-150.723,-339.036,-114.743,-352.133,-50.629C-365.337,14.007,-326.543,76.814,-294.632,134.554C-264.668,188.772,-223.8,233.966,-174.278,271.182C-121.565,310.795,-65.323,346.985,0,355.969" fill="#0d0d0d"></path><path d="M1440 1261.976C1567.935 1279.443 1673.706 1152.8139999999999 1758.267 1055.233 1829.271 973.297 1824.414 854.491 1875.833 759.038 1932.55 653.75 2084.372 587.977 2074.157 468.822 2064.068 351.145 1920.128 298.336 1829.812 222.226 1753.6770000000001 158.06599999999997 1676.948 101.719 1587.253 58.50200000000001 1481.435 7.517000000000053 1376.464-69.20600000000002 1260.241-52.20399999999995 1140.203-34.644000000000005 1033.8600000000001 48.735000000000014 966.104 149.36700000000002 901.598 245.173 905.832 367.036 900.288 482.401 895.225 587.773 884.215 698.187 935.296 790.49 984.9110000000001 880.145 1098.202 905.386 1173.08 975.336 1270.4569999999999 1066.304 1307.968 1243.949 1440 1261.976" fill="#111111"></path></g><defs><mask id="SvgjsMask1109"><rect width="1440" height="560" fill="#ffffff"></rect></mask></defs></svg>