<?xml version="1.0" encoding="utf-8"?>
<!-- Generator: Adobe Illustrator 26.3.1, SVG Export Plug-In . SVG Version: 6.00 Build 0)  -->
<svg version="1.1" xmlns="http://www.w3.org/2000/svg" xmlns:xlink="http://www.w3.org/1999/xlink" x="0px" y="0px"
	 viewBox="0 0 32 32" style="enable-background:new 0 0 32 32;" xml:space="preserve">
<style type="text/css">
	.st0{fill:#FFFFFF;}
</style>
<g id="Capa_1">
</g>
<g id="Modo_de_aislamiento">
	<g>
		<path class="st0" d="M26.96,0.92c-0.86,0.46-3.95,2.16-4.44,2.85c-0.67,0.94-2.44,4.93-3.16,6.58h-1.42
			c0.82-1.82,2.97-6.49,3.65-7.24c0.76-0.83,3.96-2.69,4.66-3.09c0.08-0.05,0.18-0.03,0.24,0.04l0.53,0.56
			C27.1,0.71,27.07,0.86,26.96,0.92z"/>
		<path class="st0" d="M21.96,22.95c-0.05,0.35-0.12,0.68-0.22,0.99c-0.17,0.55-0.42,1.04-0.72,1.49c-0.13,2.79-1.1,6.03-1.34,6.23
			c-0.25,0.2-2.89-0.44-4.76-0.81c-0.3-0.37-0.68-0.96-0.66-1.52c-0.22,0.05-0.35,0.06-0.35,0.06s-0.26-0.03-0.69-0.11
			c-0.1,0.38-0.34,0.96-0.88,1.39c-1.21,0.18-2.36,0.68-2.88,0.99c-0.29,0.17-0.52,0.27-0.7,0.33c-0.2,0.07-0.42-0.05-0.48-0.25
			c-0.74-2.54-1.09-4.49-1.25-5.84c0-0.01-0.01-0.01-0.01-0.02C7,25.86,6.99,25.84,6.98,25.83c-0.92-1.24-1.43-2.91-1.08-5.14
			c0.06-0.4,0.15-0.82,0.27-1.27C6.29,18.97,6.44,18.5,6.64,18c0.42-1.08,0.66-1.82,0.76-2.38h13c0.11,0.57,0.35,1.3,0.76,2.38
			C21.94,20.01,22.14,21.64,21.96,22.95z"/>
		<path class="st0" d="M18.51,27.71c0.08-0.05,0.16-0.1,0.25-0.15C18.67,27.62,18.59,27.67,18.51,27.71z"/>
		<path class="st0" d="M18.87,27.48c0.12-0.08,0.24-0.16,0.36-0.25C19.12,27.32,19,27.4,18.87,27.48z"/>
		<path class="st0" d="M19.35,27.15c0.08-0.06,0.16-0.12,0.23-0.18C19.51,27.03,19.43,27.09,19.35,27.15z"/>
		<polygon class="st0" points="15.67,28.29 15.67,28.29 15.67,28.29 		"/>
		<path class="st0" d="M21.82,11.16v1.2c0,0.15-0.12,0.27-0.27,0.27h-0.29c-0.18,0.26-0.39,0.62-0.6,1.08
			c-0.17,0.36-0.28,0.66-0.31,1H7.45c-0.04-0.34-0.15-0.65-0.31-1c-0.21-0.46-0.43-0.82-0.6-1.08H6.25c-0.15,0-0.27-0.12-0.27-0.27
			v-1.2c0-0.15,0.12-0.27,0.27-0.27h15.31C21.7,10.89,21.82,11.01,21.82,11.16z"/>
		<path class="st0" d="M7.01,25.87l-0.03,0c0-0.01,0-0.03,0-0.04C6.99,25.84,7,25.86,7.01,25.87z"/>
	</g>
</g>
</svg>
