<?xml version="1.0" encoding="utf-8"?>
<!-- Generator: Adobe Illustrator 26.3.1, SVG Export Plug-In . SVG Version: 6.00 Build 0)  -->
<svg version="1.1" xmlns="http://www.w3.org/2000/svg" xmlns:xlink="http://www.w3.org/1999/xlink" x="0px" y="0px"
	 viewBox="0 0 32 32" style="enable-background:new 0 0 32 32;" xml:space="preserve">
<style type="text/css">
	.st0{fill:#DB4E00;}
	.st1{fill:#FFFFFF;}
	.st2{fill:#FC7F00;}
	.st3{fill:#FE6601;}
</style>
<g id="Capa_1">
</g>
<g id="Modo_de_aislamiento">
	<circle class="st0" cx="15.96" cy="16.04" r="15.96"/>
	<g>
		<path class="st1" d="M25.02,4.15l0.39,0.42c0.07,0.07,0.05,0.18-0.04,0.23c-0.64,0.35-2.94,1.61-3.32,2.13
			c-0.64,0.89-2.59,5.45-2.59,5.45H18.4c0,0,2.34-5.25,2.97-5.94c0.56-0.62,2.96-2.01,3.47-2.31C24.9,4.09,24.98,4.1,25.02,4.15z"/>
		<path class="st2" d="M21.65,21.22c-0.04,0.26-0.09,0.51-0.16,0.74c-0.13,0.41-0.31,0.78-0.54,1.11c0,0,0,0,0,0
			c-0.02,0.03-0.04,0.06-0.06,0.09c0,0,0,0,0,0c-0.02,0.03-0.04,0.06-0.06,0.08c0,0-0.01,0.01-0.01,0.01
			c-0.02,0.03-0.04,0.05-0.06,0.08c0,0,0,0,0,0c-0.02,0.03-0.05,0.06-0.07,0.09c-0.02,0.03-0.05,0.05-0.07,0.08
			c0,0-0.01,0.01-0.01,0.01c-0.02,0.02-0.04,0.05-0.06,0.07c0,0,0,0,0,0c-0.02,0.03-0.05,0.05-0.07,0.08
			c-0.03,0.03-0.05,0.05-0.08,0.08c-0.03,0.03-0.06,0.06-0.09,0.09c-0.02,0.02-0.05,0.05-0.07,0.07c0,0-0.01,0.01-0.01,0.01
			c-0.02,0.02-0.05,0.04-0.07,0.07c-0.03,0.02-0.06,0.05-0.08,0.07c-0.03,0.02-0.06,0.05-0.08,0.07c0,0-0.01,0.01-0.01,0.01
			c-0.03,0.02-0.05,0.04-0.08,0.06c-0.06,0.05-0.12,0.09-0.17,0.14c0,0-0.01,0-0.01,0.01c-0.03,0.02-0.05,0.04-0.08,0.06
			c-0.09,0.06-0.18,0.13-0.27,0.19c-0.01,0.01-0.02,0.01-0.02,0.02c-0.02,0.01-0.05,0.03-0.07,0.04c-0.06,0.04-0.12,0.08-0.18,0.11
			c-0.03,0.02-0.05,0.03-0.08,0.05c-0.01,0-0.01,0.01-0.02,0.01c-0.06,0.04-0.12,0.07-0.18,0.1c-0.03,0.02-0.07,0.04-0.1,0.05
			c-0.03,0.01-0.05,0.03-0.08,0.04c0,0,0,0,0,0c-0.03,0.02-0.06,0.03-0.09,0.05c-0.02,0.01-0.05,0.02-0.07,0.04
			c-0.01,0-0.01,0.01-0.02,0.01c-0.03,0.01-0.06,0.03-0.09,0.04c-0.08,0.04-0.16,0.07-0.24,0.11c-0.03,0.01-0.06,0.03-0.09,0.04
			c-0.05,0.02-0.09,0.04-0.14,0.06c-0.01,0.01-0.03,0.01-0.04,0.02c-0.05,0.02-0.1,0.04-0.15,0.06c-0.03,0.01-0.05,0.02-0.08,0.03
			c-0.39,0.15-0.76,0.26-1.07,0.35c-0.02,0.01-0.05,0.01-0.07,0.02c-0.03,0.01-0.06,0.02-0.09,0.02c-0.01,0-0.03,0.01-0.04,0.01
			c-0.04,0.01-0.07,0.02-0.11,0.03c-0.02,0-0.03,0.01-0.05,0.01c-0.02,0.01-0.05,0.01-0.07,0.02c-0.01,0-0.03,0.01-0.04,0.01
			c-0.03,0.01-0.05,0.01-0.07,0.02c-0.02,0-0.03,0.01-0.05,0.01c-0.02,0-0.04,0.01-0.06,0.01c-0.17,0.03-0.26,0.05-0.26,0.05
			s-3.45-0.36-5.14-2.62c-0.01-0.01-0.02-0.02-0.02-0.03c-0.68-0.93-1.07-2.17-0.81-3.83c0.05-0.3,0.11-0.61,0.2-0.94
			c0.09-0.34,0.21-0.69,0.35-1.06c0.5-1.31,0.67-1.94,0.61-2.45h9.62c-0.06,0.51,0.11,1.14,0.61,2.45
			C21.63,19.03,21.78,20.24,21.65,21.22z"/>
		<path class="st2" d="M19.07,24.77c0.06-0.04,0.12-0.07,0.18-0.11C19.19,24.7,19.13,24.74,19.07,24.77z"/>
		<path class="st2" d="M19.35,24.6c0.09-0.06,0.18-0.12,0.27-0.19C19.53,24.48,19.44,24.54,19.35,24.6z"/>
		<path class="st2" d="M19.7,24.35c0.06-0.04,0.12-0.09,0.17-0.14C19.82,24.26,19.76,24.31,19.7,24.35z"/>
		<path class="st2" d="M15.12,25.94c-0.08,0.28-0.25,0.72-0.66,1.04c-0.9,0.13-1.76,0.51-2.15,0.74c-0.22,0.13-0.39,0.2-0.52,0.24
			c-0.15,0.05-0.31-0.04-0.36-0.19c-0.55-1.9-0.81-3.35-0.93-4.36C11.8,25.13,14.1,25.74,15.12,25.94z"/>
		<path class="st2" d="M20.94,23.07c-0.1,2.08-0.82,4.5-1,4.64c-0.19,0.15-2.15-0.33-3.55-0.6c-0.22-0.28-0.51-0.72-0.49-1.14
			c0.02,0,0.04-0.01,0.06-0.01c0.01,0,0.03-0.01,0.05-0.01c0.02,0,0.05-0.01,0.07-0.02c0.01,0,0.03-0.01,0.04-0.01
			c0.02,0,0.04-0.01,0.07-0.02c0.01,0,0.03-0.01,0.05-0.01c0.03-0.01,0.07-0.02,0.11-0.03c0.01,0,0.02-0.01,0.04-0.01
			c0.03-0.01,0.06-0.01,0.09-0.02c0.02-0.01,0.04-0.01,0.07-0.02c0.31-0.08,0.68-0.2,1.07-0.35c0.03-0.01,0.05-0.02,0.08-0.03
			c0.05-0.02,0.1-0.04,0.15-0.06c0.01-0.01,0.03-0.01,0.04-0.02c0.05-0.02,0.09-0.04,0.14-0.06c0.03-0.01,0.06-0.03,0.09-0.04
			c0.08-0.03,0.16-0.07,0.24-0.11c0.03-0.01,0.06-0.03,0.09-0.04c0.01,0,0.01-0.01,0.02-0.01c0.02-0.01,0.05-0.02,0.07-0.04
			c0.03-0.02,0.06-0.03,0.09-0.05c0,0,0,0,0,0c0.03-0.01,0.05-0.03,0.08-0.04c0.03-0.02,0.07-0.04,0.1-0.05
			c0.06-0.03,0.12-0.07,0.18-0.1c0.01,0,0.01-0.01,0.02-0.01c0.03-0.02,0.05-0.03,0.08-0.05c0.06-0.04,0.12-0.07,0.18-0.11
			c0.02-0.01,0.05-0.03,0.07-0.04c0.01-0.01,0.02-0.01,0.02-0.02c0.09-0.06,0.18-0.12,0.27-0.19c0.03-0.02,0.05-0.04,0.08-0.06
			c0,0,0.01,0,0.01-0.01c0.06-0.04,0.12-0.09,0.17-0.14c0.03-0.02,0.05-0.04,0.08-0.06c0,0,0.01-0.01,0.01-0.01
			c0.03-0.02,0.06-0.05,0.08-0.07c0.03-0.02,0.06-0.05,0.08-0.07c0.02-0.02,0.05-0.04,0.07-0.07c0,0,0.01-0.01,0.01-0.01
			c0.02-0.02,0.05-0.05,0.07-0.07c0.03-0.03,0.06-0.06,0.09-0.09c0.03-0.03,0.05-0.05,0.08-0.08c0.03-0.03,0.05-0.05,0.07-0.08
			c0,0,0,0,0,0c0.02-0.02,0.04-0.05,0.06-0.07c0,0,0.01-0.01,0.01-0.01c0.02-0.03,0.05-0.05,0.07-0.08
			c0.02-0.03,0.05-0.06,0.07-0.09c0,0,0,0,0,0c0.02-0.03,0.04-0.05,0.06-0.08c0,0,0.01-0.01,0.01-0.01
			c0.02-0.03,0.04-0.06,0.06-0.08c0,0,0,0,0,0C20.9,23.13,20.92,23.1,20.94,23.07C20.94,23.07,20.94,23.07,20.94,23.07z"/>
		<path class="st2" d="M14.41,25.16l0.02,0.06c-0.03,0-0.06-0.01-0.09-0.02L14.41,25.16z"/>
		<polygon class="st2" points="16.96,25.2 16.96,25.2 16.96,25.2 		"/>
		<path class="st3" d="M15.9,25.97c-0.01,0.42,0.27,0.86,0.49,1.14c-0.36-0.07-0.69-0.13-0.93-0.16c-0.32-0.04-0.66-0.02-1,0.03
			c0.41-0.32,0.58-0.75,0.66-1.04c-1.02-0.2-3.33-0.81-4.62-2.53c0,0-0.01-0.01-0.01-0.01c-0.01-0.01-0.02-0.02-0.02-0.03
			c-0.58-4.68,1.4-4.75,1.14-8.29h0.97c0.09,1.91-0.97,4.23-0.95,6.38c0,0.66,0.11,1.3,0.39,1.91c0.14,0.32,0.51,0.72,0.76,0.97
			c2.7,2.78,7.22,0.03,8.18-1.27C19.58,25.09,16.77,25.8,15.9,25.97z"/>
		<path class="st3" d="M21.55,12.42v0.9c0,0.11-0.09,0.2-0.2,0.2h-0.22c-0.13,0.2-0.29,0.47-0.45,0.81
			c-0.12,0.27-0.21,0.49-0.23,0.75h-9.62c-0.03-0.25-0.11-0.48-0.24-0.75c-0.16-0.34-0.32-0.61-0.45-0.81H9.93
			c-0.11,0-0.2-0.09-0.2-0.2v-0.9c0-0.11,0.09-0.2,0.2-0.2h11.42C21.46,12.22,21.55,12.31,21.55,12.42z"/>
		<path class="st2" d="M10.49,23.4l-0.02,0c0-0.01,0-0.02,0-0.03C10.48,23.38,10.49,23.39,10.49,23.4z"/>
	</g>
</g>
</svg>
