<?xml version="1.0" encoding="utf-8"?>
<!-- Generator: Adobe Illustrator 26.3.1, SVG Export Plug-In . SVG Version: 6.00 Build 0)  -->
<svg version="1.1" id="Capa_1" xmlns="http://www.w3.org/2000/svg" xmlns:xlink="http://www.w3.org/1999/xlink" x="0px" y="0px"
	 viewBox="0 0 138.29 45" style="enable-background:new 0 0 138.29 45;" xml:space="preserve">
<style type="text/css">
	.st0{fill:#1D1D1B;}
</style>
<g>
	<g>
		<g>
			<path class="st0" d="M32.94,28.5c-0.35,0.16-0.65,0.39-0.9,0.68c-0.25,0.29-0.43,0.63-0.56,1.02c-0.13,0.39-0.19,0.82-0.19,1.28
				c0,0.52,0.08,1,0.24,1.44c0.16,0.44,0.4,0.82,0.72,1.13c0.32,0.31,0.72,0.56,1.19,0.74c0.47,0.18,1.01,0.27,1.61,0.27
				c0.62,0,1.18-0.09,1.68-0.28c0.51-0.19,0.92-0.37,1.23-0.55l1.3,2.79c-0.58,0.37-1.24,0.68-1.99,0.91
				c-0.75,0.23-1.59,0.34-2.52,0.34c-1.05,0-2.01-0.15-2.88-0.45c-0.87-0.3-1.61-0.74-2.24-1.31c-0.62-0.57-1.1-1.28-1.45-2.13
				c-0.34-0.84-0.52-1.81-0.52-2.9c0-1.04,0.17-1.96,0.51-2.76c0.34-0.8,0.8-1.48,1.38-2.02s1.26-0.95,2.05-1.23
				c0.78-0.28,1.62-0.42,2.52-0.42c0.65,0,1.24,0.07,1.77,0.2s0.99,0.31,1.4,0.53c0.41,0.22,0.77,0.48,1.07,0.78
				c0.3,0.3,0.56,0.61,0.78,0.93l-2.53,1.99c-0.27-0.36-0.59-0.66-0.98-0.89c-0.39-0.23-0.89-0.34-1.5-0.34
				C33.69,28.26,33.29,28.34,32.94,28.5z"/>
			<path class="st0" d="M44.26,25.24v9.79h4.69v3.06h-8.13V25.24H44.26z"/>
			<path class="st0" d="M52.76,38.09h-3.46l4.62-12.85h3.78l4.62,12.85h-3.64l-0.78-2.39h-4.36L52.76,38.09z M54.39,33.02h2.64
				l-1.32-4.07L54.39,33.02z"/>
			<path class="st0" d="M66.72,28.22c-0.22,0.12-0.33,0.3-0.33,0.54c0,0.31,0.21,0.57,0.62,0.76c0.41,0.19,0.98,0.42,1.7,0.67
				c0.53,0.19,1,0.4,1.42,0.62c0.42,0.22,0.77,0.49,1.06,0.8c0.29,0.31,0.51,0.66,0.66,1.06c0.15,0.4,0.23,0.87,0.23,1.41
				c0,0.65-0.11,1.23-0.34,1.75c-0.23,0.51-0.56,0.95-0.99,1.31c-0.43,0.36-0.95,0.64-1.56,0.83c-0.61,0.19-1.3,0.29-2.07,0.29
				c-0.91,0-1.75-0.12-2.53-0.37c-0.78-0.25-1.48-0.56-2.09-0.95l1.41-2.81c0.54,0.37,1.1,0.65,1.67,0.84
				c0.57,0.19,1.13,0.28,1.67,0.28c0.46,0,0.79-0.07,1-0.22c0.21-0.14,0.31-0.35,0.31-0.62c0-0.14-0.03-0.27-0.1-0.38
				c-0.07-0.11-0.18-0.21-0.34-0.31c-0.16-0.1-0.38-0.2-0.66-0.32c-0.28-0.11-0.63-0.25-1.05-0.41c-0.54-0.21-1.03-0.43-1.47-0.66
				c-0.43-0.24-0.8-0.51-1.1-0.81c-0.3-0.31-0.53-0.66-0.7-1.06c-0.16-0.4-0.24-0.86-0.24-1.38c0-0.64,0.11-1.21,0.34-1.71
				c0.23-0.5,0.55-0.93,0.95-1.28c0.4-0.35,0.89-0.62,1.45-0.8c0.56-0.18,1.17-0.27,1.82-0.27c0.57,0,1.09,0.06,1.57,0.18
				c0.48,0.12,0.9,0.29,1.28,0.5c0.37,0.21,0.69,0.45,0.94,0.72c0.25,0.27,0.45,0.56,0.58,0.86l-2.7,1.61
				c-0.14-0.24-0.35-0.45-0.62-0.62c-0.27-0.18-0.61-0.26-1-0.26C67.2,28.04,66.94,28.1,66.72,28.22z"/>
			<path class="st0" d="M77.11,28.22c-0.22,0.12-0.33,0.3-0.33,0.54c0,0.31,0.21,0.57,0.62,0.76c0.41,0.19,0.98,0.42,1.7,0.67
				c0.53,0.19,1,0.4,1.42,0.62c0.42,0.22,0.77,0.49,1.06,0.8c0.29,0.31,0.51,0.66,0.66,1.06c0.15,0.4,0.23,0.87,0.23,1.41
				c0,0.65-0.11,1.23-0.34,1.75c-0.23,0.51-0.56,0.95-0.99,1.31c-0.43,0.36-0.95,0.64-1.56,0.83c-0.61,0.19-1.3,0.29-2.07,0.29
				c-0.91,0-1.75-0.12-2.53-0.37c-0.78-0.25-1.48-0.56-2.09-0.95l1.41-2.81c0.54,0.37,1.1,0.65,1.67,0.84
				c0.57,0.19,1.13,0.28,1.67,0.28c0.46,0,0.79-0.07,1-0.22c0.21-0.14,0.31-0.35,0.31-0.62c0-0.14-0.03-0.27-0.1-0.38
				c-0.07-0.11-0.18-0.21-0.34-0.31c-0.16-0.1-0.38-0.2-0.66-0.32c-0.28-0.11-0.63-0.25-1.05-0.41c-0.54-0.21-1.03-0.43-1.47-0.66
				c-0.43-0.24-0.8-0.51-1.1-0.81c-0.3-0.31-0.53-0.66-0.7-1.06c-0.16-0.4-0.24-0.86-0.24-1.38c0-0.64,0.11-1.21,0.34-1.71
				c0.23-0.5,0.55-0.93,0.95-1.28c0.4-0.35,0.89-0.62,1.45-0.8c0.56-0.18,1.17-0.27,1.82-0.27c0.57,0,1.09,0.06,1.57,0.18
				c0.48,0.12,0.9,0.29,1.28,0.5c0.37,0.21,0.69,0.45,0.94,0.72c0.25,0.27,0.45,0.56,0.58,0.86l-2.7,1.61
				c-0.14-0.24-0.35-0.45-0.62-0.62c-0.27-0.18-0.61-0.26-1-0.26C77.59,28.04,77.33,28.1,77.11,28.22z"/>
			<path class="st0" d="M84.72,25.24h4.82l2.32,5.81l2.48-5.81H99l0.63,12.85h-3.37l-0.45-9.21l-2.48,6.34h-3.19l-2.39-6.34
				l-0.45,9.21h-3.22L84.72,25.24z"/>
			<path class="st0" d="M104.07,38.09h-3.46l4.62-12.85h3.78l4.62,12.85h-3.64l-0.78-2.39h-4.36L104.07,38.09z M105.7,33.02h2.64
				l-1.32-4.07L105.7,33.02z"/>
			<path class="st0" d="M124.02,25.24v2.97h-3.39v9.88h-3.44V28.2h-3.39v-2.97H124.02z"/>
			<path class="st0" d="M134.12,28.22h-5.21v2.01h4.89v2.88h-4.89v1.99h5.29v2.99h-8.73V25.24h8.65V28.22z"/>
		</g>
	</g>
	<g>
		<path class="st0" d="M31.63,1.64c-1.2,0.65-5.5,3-6.19,3.98c-0.94,1.31-3.4,6.86-4.41,9.17h-1.97c1.15-2.54,4.14-9.05,5.09-10.08
			c1.05-1.15,5.52-3.75,6.49-4.31c0.11-0.06,0.25-0.04,0.33,0.05l0.73,0.78C31.83,1.35,31.79,1.55,31.63,1.64z"/>
		<path class="st0" d="M24.67,32.33c-0.07,0.49-0.17,0.95-0.31,1.38c-0.24,0.76-0.59,1.45-1.01,2.08c-0.19,3.89-1.53,8.41-1.87,8.67
			c-0.35,0.28-4.02-0.61-6.63-1.13c-0.41-0.52-0.95-1.34-0.92-2.12c-0.31,0.06-0.49,0.09-0.49,0.09s-0.36-0.04-0.96-0.15
			c-0.14,0.53-0.47,1.34-1.23,1.94c-1.68,0.25-3.28,0.95-4.01,1.38c-0.4,0.24-0.73,0.37-0.97,0.46C5.98,45,5.68,44.84,5.6,44.56
			c-1.03-3.54-1.52-6.26-1.74-8.13c-0.01-0.01-0.01-0.02-0.02-0.03c-0.02-0.02-0.03-0.04-0.04-0.06c-1.27-1.73-2-4.05-1.51-7.16
			c0.08-0.56,0.21-1.15,0.38-1.76c0.17-0.63,0.39-1.29,0.66-1.98c0.58-1.51,0.92-2.53,1.06-3.32H22.5c0.15,0.79,0.49,1.81,1.06,3.32
			C24.64,28.24,24.91,30.5,24.67,32.33z"/>
		<path class="st0" d="M19.86,38.97c0.11-0.07,0.23-0.14,0.34-0.21C20.09,38.83,19.97,38.9,19.86,38.97z"/>
		<path class="st0" d="M20.37,38.65c0.17-0.11,0.34-0.23,0.5-0.35C20.71,38.42,20.54,38.53,20.37,38.65z"/>
		<path class="st0" d="M21.04,38.18c0.11-0.08,0.22-0.17,0.32-0.25C21.25,38.01,21.15,38.09,21.04,38.18z"/>
		<polygon class="st0" points="15.91,39.77 15.9,39.77 15.9,39.76 		"/>
		<path class="st0" d="M24.48,15.9v1.68c0,0.21-0.17,0.38-0.37,0.38H23.7c-0.24,0.37-0.54,0.87-0.83,1.51
			c-0.23,0.5-0.39,0.92-0.44,1.4H4.45c-0.05-0.47-0.21-0.9-0.44-1.4c-0.3-0.64-0.59-1.14-0.84-1.51H2.77
			c-0.21,0-0.37-0.17-0.37-0.38V15.9c0-0.21,0.17-0.37,0.37-0.37h21.33C24.31,15.52,24.48,15.69,24.48,15.9z"/>
		<path class="st0" d="M3.83,36.4l-0.04,0c0-0.02-0.01-0.04-0.01-0.06C3.81,36.36,3.82,36.38,3.83,36.4z"/>
	</g>
</g>
</svg>
