<?xml version="1.0" encoding="utf-8"?>
<!-- Generator: Adobe Illustrator 26.3.1, SVG Export Plug-In . SVG Version: 6.00 Build 0)  -->
<svg version="1.1" id="Capa_1" xmlns="http://www.w3.org/2000/svg" xmlns:xlink="http://www.w3.org/1999/xlink" x="0px" y="0px"
	 viewBox="0 0 140 45" style="enable-background:new 0 0 140 45;" xml:space="preserve">
<style type="text/css">
	.st0{fill:#FFFFFF;}
	.st1{fill:#FC7F00;}
	.st2{fill:#DB4E00;}
	.st3{fill:#FE6601;}
</style>
<g>
	<g>
		<g>
			<path class="st0" d="M32.82,28.42c-0.35,0.16-0.65,0.39-0.9,0.69c-0.25,0.29-0.44,0.64-0.57,1.03c-0.13,0.4-0.19,0.83-0.19,1.29
				c0,0.52,0.08,1.01,0.25,1.45c0.16,0.44,0.41,0.83,0.73,1.14c0.32,0.32,0.72,0.57,1.2,0.75c0.48,0.18,1.02,0.27,1.63,0.27
				c0.62,0,1.19-0.09,1.7-0.28c0.51-0.19,0.93-0.37,1.24-0.56l1.32,2.81c-0.58,0.38-1.26,0.68-2.01,0.91
				c-0.76,0.23-1.6,0.35-2.54,0.35c-1.06,0-2.03-0.15-2.91-0.46c-0.88-0.3-1.63-0.75-2.26-1.33c-0.63-0.58-1.12-1.29-1.46-2.15
				c-0.35-0.85-0.52-1.83-0.52-2.92c0-1.05,0.17-1.98,0.51-2.79c0.34-0.81,0.8-1.49,1.39-2.04c0.58-0.55,1.27-0.96,2.07-1.24
				c0.79-0.28,1.64-0.42,2.54-0.42c0.66,0,1.25,0.07,1.78,0.2c0.53,0.13,1,0.31,1.42,0.54c0.41,0.23,0.77,0.49,1.08,0.79
				c0.3,0.3,0.57,0.61,0.79,0.94l-2.56,2.01c-0.27-0.37-0.6-0.66-0.99-0.9s-0.9-0.35-1.52-0.35C33.57,28.18,33.17,28.26,32.82,28.42
				z"/>
			<path class="st0" d="M44.24,25.12v9.89h4.73v3.09h-8.21V25.12H44.24z"/>
			<path class="st0" d="M52.83,38.1h-3.49L54,25.12h3.82l4.66,12.98h-3.67l-0.79-2.41h-4.41L52.83,38.1z M54.48,32.98h2.67
				l-1.33-4.11L54.48,32.98z"/>
			<path class="st0" d="M66.92,28.14c-0.22,0.12-0.33,0.3-0.33,0.55c0,0.32,0.21,0.57,0.62,0.77s0.99,0.42,1.72,0.68
				c0.54,0.19,1.01,0.41,1.43,0.63c0.42,0.23,0.78,0.49,1.07,0.8c0.29,0.31,0.51,0.67,0.67,1.07c0.15,0.4,0.23,0.88,0.23,1.43
				c0,0.66-0.12,1.25-0.35,1.76c-0.23,0.52-0.56,0.96-1,1.33c-0.43,0.37-0.96,0.65-1.57,0.84c-0.62,0.19-1.31,0.29-2.09,0.29
				c-0.91,0-1.76-0.12-2.55-0.37c-0.79-0.25-1.49-0.57-2.11-0.96l1.43-2.83c0.55,0.38,1.11,0.66,1.69,0.85
				c0.58,0.19,1.14,0.28,1.69,0.28c0.46,0,0.8-0.07,1.01-0.22c0.21-0.15,0.31-0.35,0.31-0.62c0-0.15-0.03-0.27-0.1-0.38
				c-0.07-0.11-0.18-0.21-0.35-0.31c-0.16-0.1-0.39-0.2-0.67-0.32c-0.28-0.12-0.63-0.25-1.06-0.41c-0.55-0.21-1.04-0.43-1.48-0.67
				c-0.44-0.24-0.81-0.51-1.12-0.82c-0.3-0.31-0.54-0.67-0.7-1.07c-0.16-0.4-0.25-0.87-0.25-1.39c0-0.65,0.12-1.22,0.35-1.73
				c0.23-0.51,0.55-0.94,0.96-1.29s0.9-0.62,1.46-0.8c0.57-0.18,1.18-0.27,1.84-0.27c0.57,0,1.1,0.06,1.58,0.18
				c0.48,0.12,0.91,0.29,1.29,0.5c0.38,0.21,0.69,0.46,0.95,0.73c0.26,0.27,0.45,0.56,0.58,0.87l-2.72,1.63
				c-0.15-0.24-0.36-0.45-0.63-0.63s-0.61-0.27-1.01-0.27C67.41,27.96,67.14,28.02,66.92,28.14z"/>
			<path class="st0" d="M77.42,28.14c-0.22,0.12-0.33,0.3-0.33,0.55c0,0.32,0.21,0.57,0.62,0.77s0.99,0.42,1.72,0.68
				c0.54,0.19,1.01,0.41,1.43,0.63c0.42,0.23,0.78,0.49,1.07,0.8c0.29,0.31,0.51,0.67,0.67,1.07c0.15,0.4,0.23,0.88,0.23,1.43
				c0,0.66-0.12,1.25-0.35,1.76c-0.23,0.52-0.56,0.96-1,1.33c-0.43,0.37-0.96,0.65-1.57,0.84c-0.62,0.19-1.31,0.29-2.09,0.29
				c-0.91,0-1.76-0.12-2.55-0.37c-0.79-0.25-1.49-0.57-2.11-0.96l1.43-2.83c0.55,0.38,1.11,0.66,1.69,0.85
				c0.58,0.19,1.14,0.28,1.69,0.28c0.46,0,0.8-0.07,1.01-0.22c0.21-0.15,0.31-0.35,0.31-0.62c0-0.15-0.03-0.27-0.1-0.38
				c-0.07-0.11-0.18-0.21-0.35-0.31c-0.16-0.1-0.39-0.2-0.67-0.32c-0.28-0.12-0.63-0.25-1.06-0.41c-0.55-0.21-1.04-0.43-1.48-0.67
				c-0.44-0.24-0.81-0.51-1.12-0.82c-0.3-0.31-0.54-0.67-0.7-1.07c-0.16-0.4-0.25-0.87-0.25-1.39c0-0.65,0.12-1.22,0.35-1.73
				c0.23-0.51,0.55-0.94,0.96-1.29s0.9-0.62,1.46-0.8c0.57-0.18,1.18-0.27,1.84-0.27c0.57,0,1.1,0.06,1.58,0.18
				c0.48,0.12,0.91,0.29,1.29,0.5c0.38,0.21,0.69,0.46,0.95,0.73c0.26,0.27,0.45,0.56,0.58,0.87l-2.72,1.63
				c-0.15-0.24-0.36-0.45-0.63-0.63c-0.27-0.18-0.61-0.27-1.01-0.27C77.9,27.96,77.64,28.02,77.42,28.14z"/>
			<path class="st1" d="M85.09,25.12h4.86l2.34,5.87l2.5-5.87h4.72l0.64,12.98h-3.4l-0.46-9.3l-2.5,6.4h-3.22l-2.41-6.4l-0.46,9.3
				h-3.25L85.09,25.12z"/>
			<path class="st1" d="M104.63,38.1h-3.49l4.66-12.98h3.82l4.66,12.98h-3.67l-0.79-2.41h-4.41L104.63,38.1z M106.28,32.98h2.67
				l-1.33-4.11L106.28,32.98z"/>
			<path class="st1" d="M124.78,25.12v3h-3.42v9.98h-3.47v-9.98h-3.42v-3H124.78z"/>
			<path class="st1" d="M134.98,28.14h-5.26v2.03h4.94v2.91h-4.94v2.01h5.34v3.02h-8.81V25.12h8.74V28.14z"/>
		</g>
	</g>
	<g>
		<path class="st2" d="M30.83,0.09l0.74,0.78C31.69,1,31.66,1.21,31.5,1.3c-1.21,0.65-5.55,3.03-6.25,4.01
			c-1.2,1.68-4.89,10.28-4.89,10.28h-2.01c0,0,4.4-9.9,5.6-11.2C25,3.23,29.51,0.6,30.49,0.04C30.6-0.03,30.74-0.01,30.83,0.09z"/>
		<path class="st1" d="M24.46,32.29c-0.07,0.49-0.17,0.96-0.31,1.39c-0.24,0.77-0.59,1.47-1.02,2.1c0,0,0,0,0,0
			c-0.04,0.06-0.08,0.12-0.12,0.17c0,0,0,0,0,0.01c-0.04,0.05-0.08,0.11-0.12,0.16c-0.01,0.01-0.01,0.02-0.02,0.02
			c-0.04,0.05-0.08,0.1-0.12,0.15c0,0,0,0,0,0c-0.04,0.06-0.09,0.11-0.13,0.17c-0.04,0.05-0.08,0.1-0.13,0.15
			c-0.01,0.01-0.02,0.02-0.02,0.03c-0.04,0.05-0.08,0.09-0.12,0.14c0,0-0.01,0.01-0.01,0.01c-0.05,0.05-0.09,0.1-0.14,0.15
			c-0.05,0.05-0.09,0.1-0.14,0.15c-0.06,0.06-0.11,0.11-0.17,0.17c-0.04,0.04-0.09,0.09-0.14,0.13c-0.01,0.01-0.01,0.01-0.02,0.02
			c-0.04,0.04-0.09,0.08-0.13,0.12c-0.05,0.05-0.1,0.09-0.16,0.14c-0.05,0.05-0.1,0.09-0.16,0.13c-0.01,0.01-0.01,0.01-0.02,0.02
			c-0.05,0.04-0.1,0.08-0.14,0.12c-0.11,0.09-0.22,0.17-0.33,0.26c0,0-0.01,0.01-0.01,0.01c-0.05,0.04-0.1,0.08-0.15,0.11
			c-0.17,0.12-0.34,0.24-0.51,0.35c-0.01,0.01-0.03,0.02-0.04,0.03c-0.04,0.03-0.08,0.05-0.13,0.08c-0.11,0.07-0.23,0.14-0.35,0.21
			c-0.05,0.03-0.1,0.06-0.14,0.09c-0.01,0.01-0.02,0.01-0.03,0.02c-0.11,0.07-0.23,0.13-0.34,0.19c-0.06,0.04-0.13,0.07-0.19,0.1
			c-0.05,0.03-0.1,0.05-0.15,0.08c0,0,0,0-0.01,0c-0.06,0.03-0.11,0.06-0.17,0.09c-0.05,0.02-0.09,0.05-0.14,0.07
			c-0.01,0.01-0.02,0.01-0.04,0.02c-0.05,0.03-0.11,0.05-0.16,0.08c-0.15,0.07-0.3,0.14-0.45,0.2c-0.06,0.03-0.11,0.05-0.17,0.07
			c-0.09,0.04-0.17,0.07-0.26,0.11c-0.03,0.01-0.06,0.02-0.08,0.03c-0.09,0.04-0.18,0.07-0.27,0.11c-0.05,0.02-0.1,0.04-0.14,0.06
			c-0.74,0.28-1.44,0.49-2.02,0.65c-0.04,0.01-0.09,0.02-0.13,0.03c-0.05,0.01-0.11,0.03-0.16,0.04c-0.02,0.01-0.05,0.01-0.07,0.02
			c-0.07,0.02-0.14,0.03-0.2,0.05c-0.03,0.01-0.06,0.01-0.09,0.02c-0.04,0.01-0.08,0.02-0.13,0.03c-0.03,0.01-0.05,0.01-0.08,0.02
			c-0.05,0.01-0.1,0.02-0.14,0.03c-0.03,0.01-0.06,0.01-0.09,0.02c-0.04,0.01-0.08,0.02-0.12,0.03c-0.31,0.06-0.49,0.09-0.49,0.09
			s-6.51-0.68-9.7-4.95c-0.02-0.02-0.03-0.04-0.04-0.06c-1.29-1.75-2.02-4.09-1.53-7.23c0.09-0.56,0.22-1.16,0.39-1.78
			c0.17-0.64,0.39-1.3,0.66-2c0.94-2.47,1.26-3.65,1.15-4.62H22.2c-0.11,0.97,0.21,2.15,1.15,4.62
			C24.43,28.15,24.71,30.44,24.46,32.29z"/>
		<path class="st1" d="M19.6,38.99c0.12-0.07,0.23-0.14,0.35-0.21C19.84,38.85,19.72,38.92,19.6,38.99z"/>
		<path class="st1" d="M20.12,38.66c0.17-0.11,0.34-0.23,0.51-0.35C20.46,38.43,20.29,38.55,20.12,38.66z"/>
		<path class="st1" d="M20.8,38.19c0.11-0.08,0.22-0.17,0.33-0.26C21.02,38.02,20.91,38.11,20.8,38.19z"/>
		<path class="st1" d="M12.16,41.18c-0.14,0.54-0.47,1.36-1.24,1.96c-1.7,0.25-3.32,0.96-4.05,1.39c-0.41,0.24-0.74,0.38-0.98,0.46
			c-0.28,0.09-0.59-0.07-0.67-0.36c-1.04-3.58-1.53-6.32-1.76-8.21C5.88,39.65,10.23,40.81,12.16,41.18z"/>
		<path class="st1" d="M23.14,35.77c-0.19,3.92-1.55,8.49-1.89,8.76c-0.36,0.29-4.06-0.62-6.7-1.14c-0.42-0.52-0.96-1.35-0.93-2.14
			c0.04-0.01,0.08-0.02,0.12-0.03c0.03-0.01,0.06-0.01,0.09-0.02c0.05-0.01,0.09-0.02,0.14-0.03c0.03-0.01,0.05-0.01,0.08-0.02
			c0.04-0.01,0.08-0.02,0.13-0.03c0.03-0.01,0.06-0.01,0.09-0.02c0.07-0.02,0.13-0.03,0.2-0.05c0.02-0.01,0.05-0.01,0.07-0.02
			c0.05-0.01,0.11-0.03,0.16-0.04c0.04-0.01,0.08-0.02,0.13-0.03c0.58-0.16,1.27-0.37,2.02-0.65c0.05-0.02,0.1-0.04,0.14-0.06
			c0.09-0.03,0.18-0.07,0.27-0.11c0.03-0.01,0.06-0.02,0.08-0.03c0.08-0.03,0.17-0.07,0.26-0.11c0.06-0.02,0.11-0.05,0.17-0.07
			c0.15-0.07,0.3-0.13,0.45-0.2c0.05-0.03,0.11-0.05,0.16-0.08c0.01-0.01,0.02-0.01,0.04-0.02c0.05-0.02,0.09-0.05,0.14-0.07
			c0.06-0.03,0.11-0.06,0.17-0.09c0,0,0,0,0.01,0c0.05-0.03,0.1-0.05,0.15-0.08c0.06-0.03,0.13-0.07,0.19-0.1
			c0.12-0.06,0.23-0.13,0.34-0.19c0.01-0.01,0.02-0.01,0.03-0.02c0.05-0.03,0.1-0.06,0.14-0.09c0.12-0.07,0.23-0.14,0.35-0.21
			c0.04-0.03,0.08-0.05,0.13-0.08c0.01-0.01,0.03-0.02,0.04-0.03c0.17-0.11,0.34-0.23,0.51-0.35c0.05-0.04,0.1-0.07,0.15-0.11
			c0,0,0.01-0.01,0.01-0.01c0.11-0.08,0.22-0.17,0.33-0.26c0.05-0.04,0.1-0.08,0.14-0.12c0.01-0.01,0.01-0.01,0.02-0.02
			c0.05-0.04,0.11-0.09,0.16-0.13c0.05-0.05,0.1-0.09,0.16-0.14c0.05-0.04,0.09-0.08,0.13-0.12c0.01-0.01,0.01-0.01,0.02-0.02
			c0.05-0.04,0.09-0.09,0.14-0.13c0.06-0.05,0.11-0.11,0.17-0.17c0.05-0.05,0.1-0.1,0.14-0.15c0.05-0.05,0.09-0.1,0.14-0.15
			c0,0,0.01-0.01,0.01-0.01c0.04-0.04,0.08-0.09,0.12-0.14c0.01-0.01,0.02-0.02,0.02-0.03c0.04-0.05,0.09-0.1,0.13-0.15
			c0.04-0.05,0.09-0.11,0.13-0.17c0,0,0,0,0,0c0.04-0.05,0.08-0.1,0.12-0.15c0.01-0.01,0.01-0.02,0.02-0.02
			c0.04-0.05,0.08-0.11,0.12-0.16c0,0,0,0,0-0.01C23.05,35.89,23.09,35.83,23.14,35.77C23.14,35.77,23.14,35.77,23.14,35.77z"/>
		<path class="st1" d="M10.81,39.72l0.03,0.11c-0.06-0.01-0.12-0.02-0.18-0.03L10.81,39.72z"/>
		<polygon class="st1" points="15.62,39.79 15.61,39.79 15.61,39.79 		"/>
		<path class="st3" d="M13.62,41.25c-0.03,0.79,0.51,1.62,0.93,2.14c-0.68-0.14-1.29-0.24-1.76-0.3c-0.61-0.07-1.25-0.04-1.88,0.05
			c0.77-0.6,1.1-1.42,1.24-1.96c-1.93-0.37-6.27-1.53-8.71-4.76c-0.01-0.01-0.01-0.02-0.02-0.03c-0.02-0.02-0.03-0.04-0.04-0.06
			C2.3,27.5,6.02,27.38,5.53,20.7h1.83c0.17,3.61-1.83,7.98-1.8,12.02c0.01,1.25,0.21,2.46,0.73,3.61c0.27,0.59,0.96,1.35,1.43,1.84
			c5.08,5.24,13.62,0.06,15.42-2.4C20.57,39.58,15.26,40.92,13.62,41.25z"/>
		<path class="st3" d="M24.27,15.69v1.69c0,0.21-0.17,0.38-0.38,0.38h-0.41c-0.25,0.37-0.54,0.88-0.84,1.52
			c-0.23,0.51-0.39,0.93-0.44,1.41H4.05C4,20.22,3.84,19.79,3.61,19.28c-0.3-0.64-0.6-1.15-0.84-1.52H2.36
			c-0.21,0-0.38-0.17-0.38-0.38v-1.69c0-0.21,0.17-0.38,0.38-0.38h21.54C24.1,15.32,24.27,15.48,24.27,15.69z"/>
		<path class="st1" d="M3.43,36.39l-0.04,0c0-0.02-0.01-0.04-0.01-0.06C3.4,36.35,3.41,36.37,3.43,36.39z"/>
	</g>
</g>
</svg>
